<svg width="402" height="559" viewBox="0 0 402 559" fill="none" xmlns="http://www.w3.org/2000/svg">
<path d="M200.67 1C181.725 2.3672 177.965 12.4747 178.453 17.3576L198.147 184.27L15.7721 165.227C10.5366 166.638 0.260881 173.219 1.04214 188.258C1.8234 203.297 11.1877 208.576 15.7721 209.336L192.206 191.676L54.1026 303.901C51.2814 309.353 48.0804 322.293 57.8462 330.431C67.6119 338.569 80.7956 336.426 86.1668 334.337L198.147 196.396L167.955 528.838C168.009 538.197 174.628 557.094 200.67 557.81" stroke="white" stroke-width="2"/>
<path d="M200.589 1C219.534 2.3672 223.294 12.4747 222.806 17.3576L203.112 184.27L385.487 165.227C390.722 166.638 400.998 173.219 400.217 188.258C399.435 203.297 390.071 208.576 385.487 209.336L209.052 191.676L347.156 303.901C349.977 309.353 353.178 322.293 343.413 330.431C333.647 338.569 320.463 336.426 315.092 334.337L203.112 196.396L233.304 528.838C233.25 538.197 226.631 557.094 200.589 557.81" stroke="white" stroke-width="2"/>
</svg>
