<svg width="913" height="412" viewBox="0 0 913 412" fill="none" xmlns="http://www.w3.org/2000/svg">
<mask id="path-1-outside-1_167_2" maskUnits="userSpaceOnUse" x="0" y="0.597168" width="913" height="411" fill="black">
<rect fill="white" y="0.597168" width="913" height="411"/>
<path d="M2 375.68H71.9231V409.597H2V375.68ZM71.9231 341.764H141.846V375.68H71.9231V341.764ZM141.846 341.764H211.769V375.68H141.846V341.764ZM211.769 341.764H281.692V375.68H211.769V341.764ZM281.692 341.764H351.615V375.68H281.692V341.764ZM351.615 341.764H421.538V375.68H351.615V341.764ZM141.846 206.097H211.769V240.014H141.846V206.097ZM211.769 172.18H281.692V206.097H211.769V172.18ZM281.692 172.18H351.615V206.097H281.692V172.18ZM351.615 172.18H421.538V206.097H351.615V172.18ZM351.615 206.097H421.538V240.014H351.615V206.097ZM351.615 240.014H421.538V273.931H351.615V240.014ZM351.615 273.931H421.538V307.847H351.615V273.931ZM351.615 307.847H421.538V341.764H351.615V307.847ZM351.615 138.264H421.538V172.18H351.615V138.264ZM351.615 104.347H421.538V138.264H351.615V104.347ZM351.615 70.4305H421.538V104.347H351.615V70.4305ZM351.615 2.59717H421.538V36.5138H351.615V2.59717ZM421.538 36.5138H491.462V70.4305H421.538V36.5138ZM281.692 36.5138H351.615V70.4305H281.692V36.5138ZM211.769 36.5138H281.692V70.4305H211.769V36.5138ZM211.769 2.59717H281.692V36.5138H211.769V2.59717ZM141.846 2.59717H211.769V36.5138H141.846V2.59717ZM71.9231 36.5138H141.846V70.4305H71.9231V36.5138ZM491.462 70.4305H561.385V104.347H491.462V70.4305ZM491.462 104.347H561.385V138.264H491.462V104.347ZM491.462 138.264H561.385V172.18H491.462V138.264ZM491.462 172.18H561.385V206.097H491.462V172.18ZM561.385 172.18H631.308V206.097H561.385V172.18ZM561.385 206.097H631.308V240.014H561.385V206.097ZM561.385 240.014H631.308V273.931H561.385V240.014ZM491.462 240.014H561.385V273.931H491.462V240.014ZM491.462 206.097H561.385V240.014H491.462V206.097ZM491.462 273.931H561.385V307.847H491.462V273.931ZM491.462 307.847H561.385V341.764H491.462V307.847ZM561.385 273.931H631.308V307.847H561.385V273.931ZM561.385 138.264H631.308V172.18H561.385V138.264ZM561.385 104.347H631.308V138.264H561.385V104.347ZM561.385 36.5138H631.308V70.4305H561.385V36.5138ZM561.385 70.4305H631.308V104.347H561.385V70.4305ZM631.308 2.59717H701.231V36.5138H631.308V2.59717ZM701.231 2.59717H771.154V36.5138H701.231V2.59717ZM771.154 2.59717H841.077V36.5138H771.154V2.59717ZM631.308 36.5138H701.231V70.4305H631.308V36.5138ZM701.231 36.5138H771.154V70.4305H701.231V36.5138ZM771.154 36.5138H841.077V70.4305H771.154V36.5138ZM631.308 172.18H701.231V206.097H631.308V172.18ZM701.231 172.18H771.154V206.097H701.231V172.18ZM841.077 2.59717H911V36.5138H841.077V2.59717ZM421.538 375.68H491.462V409.597H421.538V375.68ZM351.615 375.68H421.538V409.597H351.615V375.68ZM281.692 375.68H351.615V409.597H281.692V375.68ZM211.769 375.68H281.692V409.597H211.769V375.68ZM491.462 341.764H561.385V375.68H491.462V341.764ZM561.385 307.847H631.308V341.764H561.385V307.847Z"/>
</mask>
<path d="M211.769 375.68H210.769V376.68H211.769V375.68ZM351.615 341.764V340.764H350.615V341.764H351.615ZM421.538 375.68H422.538V374.68H421.538V375.68ZM351.615 172.18V171.18H350.615V172.18H351.615ZM351.615 206.097H350.615V207.097H351.615V206.097ZM281.692 36.5138H282.692V35.5138H281.692V36.5138ZM211.769 36.5138H210.769V37.5138H211.769V36.5138ZM561.385 70.4305V69.4305H560.385V70.4305H561.385ZM631.308 172.18H632.308V171.18H631.308V172.18ZM631.308 206.097V207.097H632.308V206.097H631.308ZM561.385 341.764V342.764H562.385V341.764H561.385ZM631.308 36.5138V35.5138H630.308V36.5138H631.308ZM631.308 70.4305V71.4305H632.308V70.4305H631.308ZM841.077 36.5138V37.5138H842.077V36.5138H841.077ZM140.846 341.764V375.68H142.846V341.764H140.846ZM210.769 341.764V375.68H212.769V341.764H210.769ZM280.692 341.764V375.68H282.692V341.764H280.692ZM281.692 374.68H211.769V376.68H281.692V374.68ZM350.615 341.764V375.68H352.615V341.764H350.615ZM351.615 374.68H281.692V376.68H351.615V374.68ZM351.615 342.764H421.538V340.764H351.615V342.764ZM421.538 374.68H351.615V376.68H421.538V374.68ZM280.692 172.18V206.097H282.692V172.18H280.692ZM350.615 172.18V206.097H352.615V172.18H350.615ZM351.615 173.18H421.538V171.18H351.615V173.18ZM421.538 205.097H351.615V207.097H421.538V205.097ZM421.538 239.014H351.615V241.014H421.538V239.014ZM421.538 272.931H351.615V274.931H421.538V272.931ZM421.538 306.847H351.615V308.847H421.538V306.847ZM351.615 139.264H421.538V137.264H351.615V139.264ZM351.615 105.347H421.538V103.347H351.615V105.347ZM282.692 70.4305V36.5138H280.692V70.4305H282.692ZM211.769 37.5138H281.692V35.5138H211.769V37.5138ZM212.769 36.5138V2.59717H210.769V36.5138H212.769ZM560.385 70.4305V104.347H562.385V70.4305H560.385ZM561.385 103.347H491.462V105.347H561.385V103.347ZM560.385 104.347V138.264H562.385V104.347H560.385ZM561.385 137.264H491.462V139.264H561.385V137.264ZM560.385 138.264V172.18H562.385V138.264H560.385ZM561.385 171.18H491.462V173.18H561.385V171.18ZM560.385 172.18V206.097H562.385V172.18H560.385ZM561.385 205.097H491.462V207.097H561.385V205.097ZM561.385 173.18H631.308V171.18H561.385V173.18ZM630.308 172.18V206.097H632.308V172.18H630.308ZM631.308 205.097H561.385V207.097H631.308V205.097ZM631.308 239.014H561.385V241.014H631.308V239.014ZM562.385 240.014V206.097H560.385V240.014H562.385ZM631.308 272.931H561.385V274.931H631.308V272.931ZM562.385 273.931V240.014H560.385V273.931H562.385ZM491.462 241.014H561.385V239.014H491.462V241.014ZM561.385 272.931H491.462V274.931H561.385V272.931ZM560.385 273.931V307.847H562.385V273.931H560.385ZM561.385 306.847H491.462V308.847H561.385V306.847ZM560.385 307.847V341.764H562.385V307.847H560.385ZM561.385 340.764H491.462V342.764H561.385V340.764ZM631.308 306.847H561.385V308.847H631.308V306.847ZM561.385 139.264H631.308V137.264H561.385V139.264ZM561.385 105.347H631.308V103.347H561.385V105.347ZM630.308 36.5138V70.4305H632.308V36.5138H630.308ZM631.308 69.4305H561.385V71.4305H631.308V69.4305ZM700.231 2.59717V36.5138H702.231V2.59717H700.231ZM701.231 35.5138H631.308V37.5138H701.231V35.5138ZM770.154 2.59717V36.5138H772.154V2.59717H770.154ZM771.154 35.5138H701.231V37.5138H771.154V35.5138ZM840.077 2.59717V36.5138H842.077V2.59717H840.077ZM841.077 35.5138H771.154V37.5138H841.077V35.5138ZM700.231 36.5138V70.4305H702.231V36.5138H700.231ZM770.154 36.5138V70.4305H772.154V36.5138H770.154ZM700.231 172.18V206.097H702.231V172.18H700.231ZM422.538 409.597V375.68H420.538V409.597H422.538ZM352.615 409.597V375.68H350.615V409.597H352.615ZM282.692 409.597V375.68H280.692V409.597H282.692ZM2 375.68V373.68H0V375.68H2ZM71.9231 409.597V411.597H73.9231V409.597H71.9231ZM2 409.597H0V411.597H2V409.597ZM71.9231 341.764V339.764H69.9231V341.764H71.9231ZM211.769 375.68H213.769V373.68H211.769V375.68ZM351.615 341.764V343.764H353.615V341.764H351.615ZM421.538 375.68H419.538V377.68H421.538V375.68ZM141.846 206.097V204.097H139.846V206.097H141.846ZM211.769 240.014V242.014H213.769V240.014H211.769ZM141.846 240.014H139.846V242.014H141.846V240.014ZM211.769 172.18V170.18H209.769V172.18H211.769ZM351.615 172.18V174.18H353.615V172.18H351.615ZM351.615 206.097H353.615V204.097H351.615V206.097ZM351.615 2.59717V0.597168H349.615V2.59717H351.615ZM421.538 2.59717H423.538V0.597168H421.538V2.59717ZM491.462 36.5138H493.462V34.5138H491.462V36.5138ZM281.692 36.5138H279.692V38.5138H281.692V36.5138ZM211.769 36.5138H213.769V34.5138H211.769V36.5138ZM211.769 70.4305H209.769V72.4305H211.769V70.4305ZM281.692 2.59717H283.692V0.597168H281.692V2.59717ZM141.846 2.59717V0.597168H139.846V2.59717H141.846ZM71.9231 36.5138V34.5138H69.9231V36.5138H71.9231ZM141.846 70.4305V72.4305H143.846V70.4305H141.846ZM71.9231 70.4305H69.9231V72.4305H71.9231V70.4305ZM561.385 70.4305V72.4305H563.385V70.4305H561.385ZM631.308 172.18H629.308V174.18H631.308V172.18ZM631.308 206.097V204.097H629.308V206.097H631.308ZM561.385 341.764V339.764H559.385V341.764H561.385ZM561.385 36.5138V34.5138H559.385V36.5138H561.385ZM631.308 36.5138V38.5138H633.308V36.5138H631.308ZM631.308 70.4305V68.4305H629.308V70.4305H631.308ZM631.308 2.59717V0.597168H629.308V2.59717H631.308ZM841.077 36.5138V34.5138H839.077V36.5138H841.077ZM841.077 70.4305V72.4305H843.077V70.4305H841.077ZM771.154 172.18H773.154V170.18H771.154V172.18ZM771.154 206.097V208.097H773.154V206.097H771.154ZM911 2.59717H913V0.597168H911V2.59717ZM911 36.5138V38.5138H913V36.5138H911ZM491.462 409.597V411.597H493.462V409.597H491.462ZM211.769 409.597H209.769V411.597H211.769V409.597ZM561.385 375.68V377.68H563.385V375.68H561.385ZM631.308 341.764V343.764H633.308V341.764H631.308ZM2 377.68H71.9231V373.68H2V377.68ZM69.9231 375.68V409.597H73.9231V375.68H69.9231ZM71.9231 407.597H2V411.597H71.9231V407.597ZM4 409.597V375.68H0V409.597H4ZM71.9231 343.764H141.846V339.764H71.9231V343.764ZM141.846 373.68H71.9231V377.68H141.846V373.68ZM73.9231 375.68V341.764H69.9231V375.68H73.9231ZM141.846 343.764H211.769V339.764H141.846V343.764ZM211.769 373.68H141.846V377.68H211.769V373.68ZM211.769 343.764H281.692V339.764H211.769V343.764ZM281.692 343.764H351.615V339.764H281.692V343.764ZM419.538 341.764V375.68H423.538V341.764H419.538ZM141.846 208.097H211.769V204.097H141.846V208.097ZM209.769 206.097V240.014H213.769V206.097H209.769ZM211.769 238.014H141.846V242.014H211.769V238.014ZM143.846 240.014V206.097H139.846V240.014H143.846ZM211.769 174.18H281.692V170.18H211.769V174.18ZM281.692 204.097H211.769V208.097H281.692V204.097ZM213.769 206.097V172.18H209.769V206.097H213.769ZM281.692 174.18H351.615V170.18H281.692V174.18ZM351.615 204.097H281.692V208.097H351.615V204.097ZM419.538 172.18V206.097H423.538V172.18H419.538ZM419.538 206.097V240.014H423.538V206.097H419.538ZM353.615 240.014V206.097H349.615V240.014H353.615ZM419.538 240.014V273.931H423.538V240.014H419.538ZM353.615 273.931V240.014H349.615V273.931H353.615ZM419.538 273.931V307.847H423.538V273.931H419.538ZM353.615 307.847V273.931H349.615V307.847H353.615ZM419.538 307.847V341.764H423.538V307.847H419.538ZM353.615 341.764V307.847H349.615V341.764H353.615ZM419.538 138.264V172.18H423.538V138.264H419.538ZM353.615 172.18V138.264H349.615V172.18H353.615ZM419.538 104.347V138.264H423.538V104.347H419.538ZM353.615 138.264V104.347H349.615V138.264H353.615ZM351.615 72.4305H421.538V68.4305H351.615V72.4305ZM419.538 70.4305V104.347H423.538V70.4305H419.538ZM353.615 104.347V70.4305H349.615V104.347H353.615ZM351.615 4.59717H421.538V0.597168H351.615V4.59717ZM419.538 2.59717V36.5138H423.538V2.59717H419.538ZM421.538 34.5138H351.615V38.5138H421.538V34.5138ZM353.615 36.5138V2.59717H349.615V36.5138H353.615ZM421.538 38.5138H491.462V34.5138H421.538V38.5138ZM489.462 36.5138V70.4305H493.462V36.5138H489.462ZM491.462 68.4305H421.538V72.4305H491.462V68.4305ZM423.538 70.4305V36.5138H419.538V70.4305H423.538ZM281.692 38.5138H351.615V34.5138H281.692V38.5138ZM349.615 36.5138V70.4305H353.615V36.5138H349.615ZM351.615 68.4305H281.692V72.4305H351.615V68.4305ZM281.692 68.4305H211.769V72.4305H281.692V68.4305ZM213.769 70.4305V36.5138H209.769V70.4305H213.769ZM211.769 4.59717H281.692V0.597168H211.769V4.59717ZM279.692 2.59717V36.5138H283.692V2.59717H279.692ZM141.846 4.59717H211.769V0.597168H141.846V4.59717ZM211.769 34.5138H141.846V38.5138H211.769V34.5138ZM143.846 36.5138V2.59717H139.846V36.5138H143.846ZM71.9231 38.5138H141.846V34.5138H71.9231V38.5138ZM139.846 36.5138V70.4305H143.846V36.5138H139.846ZM141.846 68.4305H71.9231V72.4305H141.846V68.4305ZM73.9231 70.4305V36.5138H69.9231V70.4305H73.9231ZM491.462 72.4305H561.385V68.4305H491.462V72.4305ZM493.462 104.347V70.4305H489.462V104.347H493.462ZM493.462 138.264V104.347H489.462V138.264H493.462ZM493.462 172.18V138.264H489.462V172.18H493.462ZM493.462 206.097V172.18H489.462V206.097H493.462ZM629.308 206.097V240.014H633.308V206.097H629.308ZM629.308 240.014V273.931H633.308V240.014H629.308ZM493.462 273.931V240.014H489.462V273.931H493.462ZM493.462 240.014V206.097H489.462V240.014H493.462ZM493.462 307.847V273.931H489.462V307.847H493.462ZM493.462 341.764V307.847H489.462V341.764H493.462ZM629.308 273.931V307.847H633.308V273.931H629.308ZM629.308 138.264V172.18H633.308V138.264H629.308ZM629.308 104.347V138.264H633.308V104.347H629.308ZM561.385 38.5138H631.308V34.5138H561.385V38.5138ZM563.385 70.4305V36.5138H559.385V70.4305H563.385ZM629.308 70.4305V104.347H633.308V70.4305H629.308ZM631.308 4.59717H701.231V0.597168H631.308V4.59717ZM633.308 36.5138V2.59717H629.308V36.5138H633.308ZM701.231 4.59717H771.154V0.597168H701.231V4.59717ZM771.154 4.59717H841.077V0.597168H771.154V4.59717ZM701.231 68.4305H631.308V72.4305H701.231V68.4305ZM771.154 68.4305H701.231V72.4305H771.154V68.4305ZM839.077 36.5138V70.4305H843.077V36.5138H839.077ZM841.077 68.4305H771.154V72.4305H841.077V68.4305ZM631.308 174.18H701.231V170.18H631.308V174.18ZM701.231 204.097H631.308V208.097H701.231V204.097ZM701.231 174.18H771.154V170.18H701.231V174.18ZM769.154 172.18V206.097H773.154V172.18H769.154ZM771.154 204.097H701.231V208.097H771.154V204.097ZM841.077 4.59717H911V0.597168H841.077V4.59717ZM909 2.59717V36.5138H913V2.59717H909ZM911 34.5138H841.077V38.5138H911V34.5138ZM421.538 377.68H491.462V373.68H421.538V377.68ZM489.462 375.68V409.597H493.462V375.68H489.462ZM491.462 407.597H421.538V411.597H491.462V407.597ZM421.538 407.597H351.615V411.597H421.538V407.597ZM351.615 407.597H281.692V411.597H351.615V407.597ZM281.692 407.597H211.769V411.597H281.692V407.597ZM213.769 409.597V375.68H209.769V409.597H213.769ZM559.385 341.764V375.68H563.385V341.764H559.385ZM561.385 373.68H491.462V377.68H561.385V373.68ZM493.462 375.68V341.764H489.462V375.68H493.462ZM629.308 307.847V341.764H633.308V307.847H629.308ZM631.308 339.764H561.385V343.764H631.308V339.764Z" fill="white" mask="url(#path-1-outside-1_167_2)"/>
</svg>
