<svg width="909" height="407" viewBox="0 0 909 407" fill="none" xmlns="http://www.w3.org/2000/svg">
<path d="M0 373.083H69.9231V407H0V373.083ZM69.9231 339.167H139.846V373.083H69.9231V339.167ZM139.846 339.167H209.769V373.083H139.846V339.167ZM209.769 339.167H279.692V373.083H209.769V339.167ZM279.692 339.167H349.615V373.083H279.692V339.167ZM349.615 339.167H419.538V373.083H349.615V339.167ZM139.846 203.5H209.769V237.417H139.846V203.5ZM209.769 169.583H279.692V203.5H209.769V169.583ZM279.692 169.583H349.615V203.5H279.692V169.583ZM349.615 169.583H419.538V203.5H349.615V169.583ZM349.615 203.5H419.538V237.417H349.615V203.5ZM349.615 237.417H419.538V271.333H349.615V237.417ZM349.615 271.333H419.538V305.25H349.615V271.333ZM349.615 305.25H419.538V339.167H349.615V305.25ZM349.615 135.667H419.538V169.583H349.615V135.667ZM349.615 101.75H419.538V135.667H349.615V101.75ZM349.615 67.8333H419.538V101.75H349.615V67.8333ZM349.615 0H419.538V33.9167H349.615V0ZM419.538 33.9167H489.462V67.8333H419.538V33.9167ZM279.692 33.9167H349.615V67.8333H279.692V33.9167ZM209.769 33.9167H279.692V67.8333H209.769V33.9167ZM209.769 0H279.692V33.9167H209.769V0ZM139.846 0H209.769V33.9167H139.846V0ZM69.9231 33.9167H139.846V67.8333H69.9231V33.9167ZM489.462 67.8333H559.385V101.75H489.462V67.8333ZM489.462 101.75H559.385V135.667H489.462V101.75ZM489.462 135.667H559.385V169.583H489.462V135.667ZM489.462 169.583H559.385V203.5H489.462V169.583ZM559.385 169.583H629.308V203.5H559.385V169.583ZM559.385 203.5H629.308V237.417H559.385V203.5ZM559.385 237.417H629.308V271.333H559.385V237.417ZM489.462 237.417H559.385V271.333H489.462V237.417ZM489.462 203.5H559.385V237.417H489.462V203.5ZM489.462 271.333H559.385V305.25H489.462V271.333ZM489.462 305.25H559.385V339.167H489.462V305.25ZM559.385 271.333H629.308V305.25H559.385V271.333ZM559.385 135.667H629.308V169.583H559.385V135.667ZM559.385 101.75H629.308V135.667H559.385V101.75ZM559.385 33.9167H629.308V67.8333H559.385V33.9167ZM559.385 67.8333H629.308V101.75H559.385V67.8333ZM629.308 0H699.231V33.9167H629.308V0ZM699.231 0H769.154V33.9167H699.231V0ZM769.154 0H839.077V33.9167H769.154V0ZM629.308 33.9167H699.231V67.8333H629.308V33.9167ZM699.231 33.9167H769.154V67.8333H699.231V33.9167ZM769.154 33.9167H839.077V67.8333H769.154V33.9167ZM629.308 169.583H699.231V203.5H629.308V169.583ZM699.231 169.583H769.154V203.5H699.231V169.583ZM839.077 0H909V33.9167H839.077V0ZM419.538 373.083H489.462V407H419.538V373.083ZM349.615 373.083H419.538V407H349.615V373.083ZM279.692 373.083H349.615V407H279.692V373.083ZM209.769 373.083H279.692V407H209.769V373.083ZM489.462 339.167H559.385V373.083H489.462V339.167ZM559.385 305.25H629.308V339.167H559.385V305.25Z" fill="#FF0099"/>
</svg>
