<svg width="321" height="196" viewBox="0 0 321 196" fill="none" xmlns="http://www.w3.org/2000/svg">
<rect x="0.5" y="0.5" width="249" height="51" stroke="white"/>
<path d="M7.9127 17.3492H8.8254V18.2619H7.9127V17.3492ZM7.9127 16.4365H8.8254V17.3492H7.9127V16.4365ZM7.9127 15.5238H8.8254V16.4365H7.9127V15.5238ZM7.9127 14.6111H8.8254V15.5238H7.9127V14.6111ZM8.8254 14.6111H9.7381V15.5238H8.8254V14.6111ZM8.8254 15.5238H9.7381V16.4365H8.8254V15.5238ZM8.8254 16.4365H9.7381V17.3492H8.8254V16.4365ZM8.8254 17.3492H9.7381V18.2619H8.8254V17.3492ZM8.8254 18.2619H9.7381V19.1746H8.8254V18.2619ZM9.7381 18.2619H10.6508V19.1746H9.7381V18.2619ZM9.7381 19.1746H10.6508V20.0873H9.7381V19.1746ZM8.8254 19.1746H9.7381V20.0873H8.8254V19.1746ZM10.6508 19.1746H11.5635V20.0873H10.6508V19.1746ZM10.6508 20.0873H11.5635V21H10.6508V20.0873ZM11.5635 20.0873H12.4762V21H11.5635V20.0873ZM12.4762 20.0873H13.3889V21H12.4762V20.0873ZM13.3889 20.0873H14.3016V21H13.3889V20.0873ZM14.3016 20.0873H15.2143V21H14.3016V20.0873ZM15.2143 19.1746H16.127V20.0873H15.2143V19.1746ZM16.127 19.1746H17.0397V20.0873H16.127V19.1746ZM15.2143 20.0873H16.127V21H15.2143V20.0873ZM17.0397 18.2619H17.9524V19.1746H17.0397V18.2619ZM7.9127 13.6984H8.8254V14.6111H7.9127V13.6984ZM8.8254 13.6984H9.7381V14.6111H8.8254V13.6984ZM8.8254 12.7857H9.7381V13.6984H8.8254V12.7857ZM8.8254 11.873H9.7381V12.7857H8.8254V11.873ZM9.7381 10.9603H10.6508V11.873H9.7381V10.9603ZM10.6508 10.0476H11.5635V10.9603H10.6508V10.0476ZM10.6508 13.6984H11.5635V14.6111H10.6508V13.6984ZM11.5635 13.6984H12.4762V14.6111H11.5635V13.6984ZM10.6508 15.5238H11.5635V16.4365H10.6508V15.5238ZM11.5635 15.5238H12.4762V16.4365H11.5635V15.5238ZM12.4762 15.5238H13.3889V16.4365H12.4762V15.5238ZM12.4762 13.6984H13.3889V14.6111H12.4762V13.6984ZM12.4762 14.6111H13.3889V15.5238H12.4762V14.6111ZM12.4762 16.4365H13.3889V17.3492H12.4762V16.4365ZM13.3889 15.5238H14.3016V16.4365H13.3889V15.5238ZM13.3889 14.6111H14.3016V15.5238H13.3889V14.6111ZM13.3889 13.6984H14.3016V14.6111H13.3889V13.6984ZM13.3889 16.4365H14.3016V17.3492H13.3889V16.4365ZM11.5635 18.2619H12.4762V19.1746H11.5635V18.2619ZM12.4762 18.2619H13.3889V19.1746H12.4762V18.2619ZM12.4762 17.3492H13.3889V18.2619H12.4762V17.3492ZM13.3889 17.3492H14.3016V18.2619H13.3889V17.3492ZM15.2143 17.3492H16.127V18.2619H15.2143V17.3492ZM15.2143 16.4365H16.127V17.3492H15.2143V16.4365ZM15.2143 15.5238H16.127V16.4365H15.2143V15.5238ZM15.2143 14.6111H16.127V15.5238H15.2143V14.6111ZM15.2143 13.6984H16.127V14.6111H15.2143V13.6984ZM15.2143 12.7857H16.127V13.6984H15.2143V12.7857ZM13.3889 12.7857H14.3016V13.6984H13.3889V12.7857ZM12.4762 12.7857H13.3889V13.6984H12.4762V12.7857ZM12.4762 11.873H13.3889V12.7857H12.4762V11.873ZM13.3889 11.873H14.3016V12.7857H13.3889V11.873ZM13.3889 10.9603H14.3016V11.873H13.3889V10.9603ZM14.3016 10.0476H15.2143V10.9603H14.3016V10.0476ZM15.2143 10.0476H16.127V10.9603H15.2143V10.0476ZM15.2143 10.9603H16.127V11.873H15.2143V10.9603ZM16.127 10.9603H17.0397V11.873H16.127V10.9603ZM17.0397 10.0476H17.9524V10.9603H17.0397V10.0476ZM18.8624 19.1746H19.7751V20.0873H18.8624V19.1746ZM19.7751 19.1746H20.6878V20.0873H19.7751V19.1746ZM20.6878 19.1746H21.6005V20.0873H20.6878V19.1746ZM21.6005 19.1746H22.5132V20.0873H21.6005V19.1746ZM20.6878 20.0873H21.6005V21H20.6878V20.0873ZM23.4259 19.1746H24.3386V20.0873H23.4259V19.1746ZM24.3386 18.2619H25.2513V19.1746H24.3386V18.2619ZM23.4259 18.2619H24.3386V19.1746H23.4259V18.2619ZM23.4259 17.3492H24.3386V18.2619H23.4259V17.3492ZM23.4259 16.4365H24.3386V17.3492H23.4259V16.4365ZM24.3386 16.4365H25.2513V17.3492H24.3386V16.4365ZM24.3386 17.3492H25.2513V18.2619H24.3386V17.3492ZM19.7751 18.2619H20.6878V19.1746H19.7751V18.2619ZM20.6878 18.2619H21.6005V19.1746H20.6878V18.2619ZM20.6878 17.3492H21.6005V18.2619H20.6878V17.3492ZM19.7751 17.3492H20.6878V18.2619H19.7751V17.3492ZM19.7751 16.4365H20.6878V17.3492H19.7751V16.4365ZM24.3386 15.5238H25.2513V16.4365H24.3386V15.5238ZM23.4259 15.5238H24.3386V16.4365H23.4259V15.5238ZM20.6878 15.5238H21.6005V16.4365H20.6878V15.5238ZM19.7751 15.5238H20.6878V16.4365H19.7751V15.5238ZM25.2513 14.6111H26.164V15.5238H25.2513V14.6111ZM24.3386 14.6111H25.2513V15.5238H24.3386V14.6111ZM23.4259 14.6111H24.3386V15.5238H23.4259V14.6111ZM22.5132 14.6111H23.4259V15.5238H22.5132V14.6111ZM21.6005 13.6984H22.5132V14.6111H21.6005V13.6984ZM22.5132 13.6984H23.4259V14.6111H22.5132V13.6984ZM23.4259 13.6984H24.3386V14.6111H23.4259V13.6984ZM20.6878 16.4365H21.6005V17.3492H20.6878V16.4365ZM20.6878 14.6111H21.6005V15.5238H20.6878V14.6111ZM21.6005 20.0873H22.5132V21H21.6005V20.0873ZM22.5132 19.1746H23.4259V20.0873H22.5132V19.1746ZM27.9921 19.1746H28.9048V20.0873H27.9921V19.1746ZM28.9048 19.1746H29.8175V20.0873H28.9048V19.1746ZM29.8175 19.1746H30.7302V20.0873H29.8175V19.1746ZM30.7302 19.1746H31.6429V20.0873H30.7302V19.1746ZM28.9048 20.0873H29.8175V21H28.9048V20.0873ZM29.8175 20.0873H30.7302V21H29.8175V20.0873ZM32.5556 19.1746H33.4683V20.0873H32.5556V19.1746ZM33.4683 19.1746H34.381V20.0873H33.4683V19.1746ZM34.381 19.1746H35.2936V20.0873H34.381V19.1746ZM33.4683 20.0873H34.381V21H33.4683V20.0873ZM33.4683 18.2619H34.381V19.1746H33.4683V18.2619ZM32.5556 18.2619H33.4683V19.1746H32.5556V18.2619ZM32.5556 17.3492H33.4683V18.2619H32.5556V17.3492ZM32.5556 16.4365H33.4683V17.3492H32.5556V16.4365ZM33.4683 16.4365H34.381V17.3492H33.4683V16.4365ZM33.4683 17.3492H34.381V18.2619H33.4683V17.3492ZM28.9048 18.2619H29.8175V19.1746H28.9048V18.2619ZM29.8175 18.2619H30.7302V19.1746H29.8175V18.2619ZM29.8175 17.3492H30.7302V18.2619H29.8175V17.3492ZM28.9048 17.3492H29.8175V18.2619H28.9048V17.3492ZM28.9048 16.4365H29.8175V17.3492H28.9048V16.4365ZM29.8175 16.4365H30.7302V17.3492H29.8175V16.4365ZM33.4683 15.5238H34.381V16.4365H33.4683V15.5238ZM32.5556 15.5238H33.4683V16.4365H32.5556V15.5238ZM29.8175 15.5238H30.7302V16.4365H29.8175V15.5238ZM28.9048 14.6111H29.8175V15.5238H28.9048V14.6111ZM28.9048 15.5238H29.8175V16.4365H28.9048V15.5238ZM34.381 14.6111H35.2936V15.5238H34.381V14.6111ZM33.4683 14.6111H34.381V15.5238H33.4683V14.6111ZM32.5556 14.6111H33.4683V15.5238H32.5556V14.6111ZM29.8175 14.6111H30.7302V15.5238H29.8175V14.6111ZM30.7302 14.6111H31.6429V15.5238H30.7302V14.6111ZM31.6429 14.6111H32.5556V15.5238H31.6429V14.6111ZM27.9921 14.6111H28.9048V15.5238H27.9921V14.6111ZM27.0794 14.6111H27.9921V15.5238H27.0794V14.6111ZM27.9921 13.6984H28.9048V14.6111H27.9921V13.6984ZM28.9048 13.6984H29.8175V14.6111H28.9048V13.6984ZM31.6429 13.6984H32.5556V14.6111H31.6429V13.6984ZM32.5556 13.6984H33.4683V14.6111H32.5556V13.6984ZM37.1262 19.1746H38.0389V20.0873H37.1262V19.1746ZM38.0389 19.1746H38.9516V20.0873H38.0389V19.1746ZM38.9516 19.1746H39.8643V20.0873H38.9516V19.1746ZM39.8643 19.1746H40.777V20.0873H39.8643V19.1746ZM38.0389 20.0873H38.9516V21H38.0389V20.0873ZM38.9516 20.0873H39.8643V21H38.9516V20.0873ZM41.6897 19.1746H42.6024V20.0873H41.6897V19.1746ZM42.6024 19.1746H43.5151V20.0873H42.6024V19.1746ZM43.5151 19.1746H44.4278V20.0873H43.5151V19.1746ZM42.6024 20.0873H43.5151V21H42.6024V20.0873ZM42.6024 18.2619H43.5151V19.1746H42.6024V18.2619ZM41.6897 18.2619H42.6024V19.1746H41.6897V18.2619ZM41.6897 17.3492H42.6024V18.2619H41.6897V17.3492ZM41.6897 16.4365H42.6024V17.3492H41.6897V16.4365ZM42.6024 16.4365H43.5151V17.3492H42.6024V16.4365ZM42.6024 17.3492H43.5151V18.2619H42.6024V17.3492ZM38.0389 18.2619H38.9516V19.1746H38.0389V18.2619ZM38.9516 18.2619H39.8643V19.1746H38.9516V18.2619ZM38.9516 17.3492H39.8643V18.2619H38.9516V17.3492ZM38.0389 17.3492H38.9516V18.2619H38.0389V17.3492ZM38.0389 16.4365H38.9516V17.3492H38.0389V16.4365ZM38.9516 16.4365H39.8643V17.3492H38.9516V16.4365ZM42.6024 15.5238H43.5151V16.4365H42.6024V15.5238ZM41.6897 15.5238H42.6024V16.4365H41.6897V15.5238ZM38.9516 15.5238H39.8643V16.4365H38.9516V15.5238ZM38.0389 14.6111H38.9516V15.5238H38.0389V14.6111ZM38.0389 15.5238H38.9516V16.4365H38.0389V15.5238ZM43.5151 14.6111H44.4278V15.5238H43.5151V14.6111ZM42.6024 14.6111H43.5151V15.5238H42.6024V14.6111ZM41.6897 14.6111H42.6024V15.5238H41.6897V14.6111ZM38.9516 14.6111H39.8643V15.5238H38.9516V14.6111ZM39.8643 14.6111H40.777V15.5238H39.8643V14.6111ZM40.777 14.6111H41.6897V15.5238H40.777V14.6111ZM37.1262 14.6111H38.0389V15.5238H37.1262V14.6111ZM36.2135 14.6111H37.1262V15.5238H36.2135V14.6111ZM37.1262 13.6984H38.0389V14.6111H37.1262V13.6984ZM38.0389 13.6984H38.9516V14.6111H38.0389V13.6984ZM40.777 13.6984H41.6897V14.6111H40.777V13.6984ZM41.6897 13.6984H42.6024V14.6111H41.6897V13.6984ZM46.2603 19.1746H47.173V20.0873H46.2603V19.1746ZM45.3476 19.1746H46.2603V20.0873H45.3476V19.1746ZM47.173 19.1746H48.0857V20.0873H47.173V19.1746ZM46.2603 20.0873H47.173V21H46.2603V20.0873ZM47.173 20.0873H48.0857V21H47.173V20.0873ZM46.2603 17.3492H47.173V18.2619H46.2603V17.3492ZM47.173 17.3492H48.0857V18.2619H47.173V17.3492ZM47.173 16.4365H48.0857V17.3492H47.173V16.4365ZM47.173 15.5238H48.0857V16.4365H47.173V15.5238ZM46.2603 15.5238H47.173V16.4365H46.2603V15.5238ZM46.2603 16.4365H47.173V17.3492H46.2603V16.4365ZM47.173 14.6111H48.0857V15.5238H47.173V14.6111ZM48.0857 13.6984H48.9984V14.6111H48.0857V13.6984ZM49.9111 13.6984H50.8238V14.6111H49.9111V13.6984ZM48.9984 13.6984H49.9111V14.6111H48.9984V13.6984ZM49.9111 14.6111H50.8238V15.5238H49.9111V14.6111ZM48.0857 19.1746H48.9984V20.0873H48.0857V19.1746ZM48.9984 14.6111H49.9111V15.5238H48.9984V14.6111ZM50.8238 14.6111H51.7365V15.5238H50.8238V14.6111ZM50.8238 15.5238H51.7365V16.4365H50.8238V15.5238ZM49.9111 15.5238H50.8238V16.4365H49.9111V15.5238ZM48.9984 16.4365H49.9111V17.3492H48.9984V16.4365ZM48.0857 16.4365H48.9984V17.3492H48.0857V16.4365ZM46.2603 18.2619H47.173V19.1746H46.2603V18.2619ZM47.173 18.2619H48.0857V19.1746H47.173V18.2619ZM48.9984 19.1746H49.9111V20.0873H48.9984V19.1746ZM53.5601 19.1746H54.4728V20.0873H53.5601V19.1746ZM52.6474 19.1746H53.5601V20.0873H52.6474V19.1746ZM54.4728 19.1746H55.3855V20.0873H54.4728V19.1746ZM53.5601 20.0873H54.4728V21H53.5601V20.0873ZM54.4728 20.0873H55.3855V21H54.4728V20.0873ZM53.5601 18.2619H54.4728V19.1746H53.5601V18.2619ZM54.4728 18.2619H55.3855V19.1746H54.4728V18.2619ZM54.4728 17.3492H55.3855V18.2619H54.4728V17.3492ZM54.4728 16.4365H55.3855V17.3492H54.4728V16.4365ZM53.5601 16.4365H54.4728V17.3492H53.5601V16.4365ZM53.5601 17.3492H54.4728V18.2619H53.5601V17.3492ZM54.4728 15.5238H55.3855V16.4365H54.4728V15.5238ZM57.2109 14.6111H58.1236V15.5238H57.2109V14.6111ZM56.2982 14.6111H57.2109V15.5238H56.2982V14.6111ZM55.3855 19.1746H56.2982V20.0873H55.3855V19.1746ZM55.3855 13.6984H56.2982V14.6111H55.3855V13.6984ZM56.2982 13.6984H57.2109V14.6111H56.2982V13.6984ZM57.2109 13.6984H58.1236V14.6111H57.2109V13.6984ZM54.4728 14.6111H55.3855V15.5238H54.4728V14.6111ZM53.5601 15.5238H54.4728V16.4365H53.5601V15.5238ZM56.2982 19.1746H57.2109V20.0873H56.2982V19.1746ZM59.03 19.1746H59.9427V20.0873H59.03V19.1746ZM59.9427 19.1746H60.8554V20.0873H59.9427V19.1746ZM60.8554 19.1746H61.7681V20.0873H60.8554V19.1746ZM61.7681 19.1746H62.6808V20.0873H61.7681V19.1746ZM62.6808 19.1746H63.5935V20.0873H62.6808V19.1746ZM60.8554 20.0873H61.7681V21H60.8554V20.0873ZM61.7681 20.0873H62.6808V21H61.7681V20.0873ZM59.9427 18.2619H60.8554V19.1746H59.9427V18.2619ZM60.8554 18.2619H61.7681V19.1746H60.8554V18.2619ZM60.8554 17.3492H61.7681V18.2619H60.8554V17.3492ZM60.8554 16.4365H61.7681V17.3492H60.8554V16.4365ZM59.9427 16.4365H60.8554V17.3492H59.9427V16.4365ZM59.9427 17.3492H60.8554V18.2619H59.9427V17.3492ZM59.9427 15.5238H60.8554V16.4365H59.9427V15.5238ZM60.8554 15.5238H61.7681V16.4365H60.8554V15.5238ZM60.8554 14.6111H61.7681V15.5238H60.8554V14.6111ZM60.8554 13.6984H61.7681V14.6111H60.8554V13.6984ZM59.9427 14.6111H60.8554V15.5238H59.9427V14.6111ZM59.9427 13.6984H60.8554V14.6111H59.9427V13.6984ZM59.03 13.6984H59.9427V14.6111H59.03V13.6984ZM61.7681 13.6984H62.6808V14.6111H61.7681V13.6984ZM59.9427 12.7857H60.8554V13.6984H59.9427V12.7857ZM60.8554 12.7857H61.7681V13.6984H60.8554V12.7857ZM60.8554 11.873H61.7681V12.7857H60.8554V11.873ZM59.9427 11.873H60.8554V12.7857H59.9427V11.873ZM60.8554 10.9603H61.7681V11.873H60.8554V10.9603ZM62.6808 13.6984H63.5935V14.6111H62.6808V13.6984ZM69.0813 20.0873H69.994V21H69.0813V20.0873ZM69.994 19.1746H70.9067V20.0873H69.994V19.1746ZM70.9067 20.0873H71.8194V21H70.9067V20.0873ZM70.9067 19.1746H71.8194V20.0873H70.9067V19.1746ZM70.9067 18.2619H71.8194V19.1746H70.9067V18.2619ZM71.8194 18.2619H72.7321V19.1746H71.8194V18.2619ZM71.8194 17.3492H72.7321V18.2619H71.8194V17.3492ZM71.8194 19.1746H72.7321V20.0873H71.8194V19.1746ZM71.8194 20.0873H72.7321V21H71.8194V20.0873ZM70.9067 21H71.8194V21.9127H70.9067V21ZM70.9067 21.9127H71.8194V22.8254H70.9067V21.9127ZM70.9067 22.8254H71.8194V23.7381H70.9067V22.8254ZM71.8194 21.9127H72.7321V22.8254H71.8194V21.9127ZM71.8194 21H72.7321V21.9127H71.8194V21ZM70.9067 17.3492H71.8194V18.2619H70.9067V17.3492ZM70.9067 16.4365H71.8194V17.3492H70.9067V16.4365ZM70.9067 15.5238H71.8194V16.4365H70.9067V15.5238ZM70.9067 14.6111H71.8194V15.5238H70.9067V14.6111ZM69.0813 14.6111H69.994V15.5238H69.0813V14.6111ZM69.994 14.6111H70.9067V15.5238H69.994V14.6111ZM69.994 13.6984H70.9067V14.6111H69.994V13.6984ZM70.9067 13.6984H71.8194V14.6111H70.9067V13.6984ZM71.8194 14.6111H72.7321V15.5238H71.8194V14.6111ZM72.7321 14.6111H73.6448V15.5238H72.7321V14.6111ZM73.6448 14.6111H74.5575V15.5238H73.6448V14.6111ZM74.5575 14.6111H75.4702V15.5238H74.5575V14.6111ZM75.4702 14.6111H76.3829V15.5238H75.4702V14.6111ZM73.6448 13.6984H74.5575V14.6111H73.6448V13.6984ZM74.5575 13.6984H75.4702V14.6111H74.5575V13.6984ZM76.3829 14.6111H77.2956V15.5238H76.3829V14.6111ZM75.4702 15.5238H76.3829V16.4365H75.4702V15.5238ZM75.4702 16.4365H76.3829V17.3492H75.4702V16.4365ZM75.4702 17.3492H76.3829V18.2619H75.4702V17.3492ZM75.4702 18.2619H76.3829V19.1746H75.4702V18.2619ZM74.5575 18.2619H75.4702V19.1746H74.5575V18.2619ZM74.5575 17.3492H75.4702V18.2619H74.5575V17.3492ZM74.5575 16.4365H75.4702V17.3492H74.5575V16.4365ZM74.5575 15.5238H75.4702V16.4365H74.5575V15.5238ZM71.8194 16.4365H72.7321V17.3492H71.8194V16.4365ZM71.8194 15.5238H72.7321V16.4365H71.8194V15.5238ZM74.5575 20.0873H75.4702V21H74.5575V20.0873ZM74.5575 19.1746H75.4702V20.0873H74.5575V19.1746ZM75.4702 19.1746H76.3829V20.0873H75.4702V19.1746ZM76.3829 19.1746H77.2956V20.0873H76.3829V19.1746ZM73.6448 19.1746H74.5575V20.0873H73.6448V19.1746ZM72.7321 19.1746H73.6448V20.0873H72.7321V19.1746ZM79.1281 19.1746H80.0408V20.0873H79.1281V19.1746ZM80.0408 19.1746H80.9535V20.0873H80.0408V19.1746ZM80.9535 19.1746H81.8662V20.0873H80.9535V19.1746ZM81.8662 19.1746H82.7789V20.0873H81.8662V19.1746ZM80.0408 20.0873H80.9535V21H80.0408V20.0873ZM80.9535 20.0873H81.8662V21H80.9535V20.0873ZM78.2154 19.1746H79.1281V20.0873H78.2154V19.1746ZM79.1281 18.2619H80.0408V19.1746H79.1281V18.2619ZM79.1281 17.3492H80.0408V18.2619H79.1281V17.3492ZM79.1281 16.4365H80.0408V17.3492H79.1281V16.4365ZM80.0408 18.2619H80.9535V19.1746H80.0408V18.2619ZM80.0408 17.3492H80.9535V18.2619H80.0408V17.3492ZM80.0408 16.4365H80.9535V17.3492H80.0408V16.4365ZM80.0408 15.5238H80.9535V16.4365H80.0408V15.5238ZM82.7789 14.6111H83.6916V15.5238H82.7789V14.6111ZM82.7789 15.5238H83.6916V16.4365H82.7789V15.5238ZM83.6916 15.5238H84.6043V16.4365H83.6916V15.5238ZM82.7789 16.4365H83.6916V17.3492H82.7789V16.4365ZM83.6916 16.4365H84.6043V17.3492H83.6916V16.4365ZM83.6916 17.3492H84.6043V18.2619H83.6916V17.3492ZM82.7789 17.3492H83.6916V18.2619H82.7789V17.3492ZM82.7789 18.2619H83.6916V19.1746H82.7789V18.2619ZM83.6916 18.2619H84.6043V19.1746H83.6916V18.2619ZM82.7789 19.1746H83.6916V20.0873H82.7789V19.1746ZM82.7789 20.0873H83.6916V21H82.7789V20.0873ZM83.6916 20.0873H84.6043V21H83.6916V20.0873ZM83.6916 19.1746H84.6043V20.0873H83.6916V19.1746ZM84.6043 19.1746H85.517V20.0873H84.6043V19.1746ZM80.9535 13.6984H81.8662V14.6111H80.9535V13.6984ZM81.8662 13.6984H82.7789V14.6111H81.8662V13.6984ZM82.7789 13.6984H83.6916V14.6111H82.7789V13.6984ZM84.6043 14.6111H85.517V15.5238H84.6043V14.6111ZM83.6916 14.6111H84.6043V15.5238H83.6916V14.6111ZM80.0408 14.6111H80.9535V15.5238H80.0408V14.6111ZM79.1281 15.5238H80.0408V16.4365H79.1281V15.5238ZM86.4324 19.1746H87.3451V20.0873H86.4324V19.1746ZM87.3451 19.1746H88.2578V20.0873H87.3451V19.1746ZM88.2578 19.1746H89.1705V20.0873H88.2578V19.1746ZM89.1705 19.1746H90.0832V20.0873H89.1705V19.1746ZM90.0832 19.1746H90.9959V20.0873H90.0832V19.1746ZM88.2578 20.0873H89.1705V21H88.2578V20.0873ZM89.1705 20.0873H90.0832V21H89.1705V20.0873ZM87.3451 18.2619H88.2578V19.1746H87.3451V18.2619ZM88.2578 18.2619H89.1705V19.1746H88.2578V18.2619ZM88.2578 17.3492H89.1705V18.2619H88.2578V17.3492ZM88.2578 16.4365H89.1705V17.3492H88.2578V16.4365ZM87.3451 16.4365H88.2578V17.3492H87.3451V16.4365ZM87.3451 17.3492H88.2578V18.2619H87.3451V17.3492ZM87.3451 15.5238H88.2578V16.4365H87.3451V15.5238ZM88.2578 15.5238H89.1705V16.4365H88.2578V15.5238ZM88.2578 14.6111H89.1705V15.5238H88.2578V14.6111ZM88.2578 13.6984H89.1705V14.6111H88.2578V13.6984ZM87.3451 14.6111H88.2578V15.5238H87.3451V14.6111ZM87.3451 13.6984H88.2578V14.6111H87.3451V13.6984ZM86.4324 13.6984H87.3451V14.6111H86.4324V13.6984ZM89.1705 13.6984H90.0832V14.6111H89.1705V13.6984ZM87.3451 12.7857H88.2578V13.6984H87.3451V12.7857ZM88.2578 12.7857H89.1705V13.6984H88.2578V12.7857ZM88.2578 11.873H89.1705V12.7857H88.2578V11.873ZM87.3451 11.873H88.2578V12.7857H87.3451V11.873ZM88.2578 10.9603H89.1705V11.873H88.2578V10.9603ZM90.0832 13.6984H90.9959V14.6111H90.0832V13.6984ZM93.742 10.0476H94.6547V10.9603H93.742V10.0476ZM92.8293 10.9603H93.742V11.873H92.8293V10.9603ZM93.742 10.9603H94.6547V11.873H93.742V10.9603ZM93.742 11.873H94.6547V12.7857H93.742V11.873ZM92.8293 12.7857H93.742V13.6984H92.8293V12.7857ZM92.8293 13.6984H93.742V14.6111H92.8293V13.6984ZM92.8293 14.6111H93.742V15.5238H92.8293V14.6111ZM92.8293 15.5238H93.742V16.4365H92.8293V15.5238ZM92.8293 11.873H93.742V12.7857H92.8293V11.873ZM93.742 12.7857H94.6547V13.6984H93.742V12.7857ZM93.742 13.6984H94.6547V14.6111H93.742V13.6984ZM93.742 14.6111H94.6547V15.5238H93.742V14.6111ZM92.8293 16.4365H93.742V17.3492H92.8293V16.4365ZM92.8293 17.3492H93.742V18.2619H92.8293V17.3492ZM92.8293 18.2619H93.742V19.1746H92.8293V18.2619ZM93.742 17.3492H94.6547V18.2619H93.742V17.3492ZM93.742 16.4365H94.6547V17.3492H93.742V16.4365ZM93.742 15.5238H94.6547V16.4365H93.742V15.5238ZM93.742 18.2619H94.6547V19.1746H93.742V18.2619ZM93.742 19.1746H94.6547V20.0873H93.742V19.1746ZM92.8293 19.1746H93.742V20.0873H92.8293V19.1746ZM92.8293 20.0873H93.742V21H92.8293V20.0873ZM93.742 20.0873H94.6547V21H93.742V20.0873ZM91.9166 19.1746H92.8293V20.0873H91.9166V19.1746ZM94.6547 19.1746H95.5674V20.0873H94.6547V19.1746ZM94.6547 14.6111H95.5674V15.5238H94.6547V14.6111ZM95.5674 13.6984H96.4801V14.6111H95.5674V13.6984ZM96.4801 13.6984H97.3928V14.6111H96.4801V13.6984ZM96.4801 14.6111H97.3928V15.5238H96.4801V14.6111ZM97.3928 14.6111H98.3055V15.5238H97.3928V14.6111ZM98.3055 14.6111H99.2182V15.5238H98.3055V14.6111ZM97.3928 15.5238H98.3055V16.4365H97.3928V15.5238ZM97.3928 16.4365H98.3055V17.3492H97.3928V16.4365ZM97.3928 17.3492H98.3055V18.2619H97.3928V17.3492ZM96.4801 15.5238H97.3928V16.4365H96.4801V15.5238ZM96.4801 16.4365H97.3928V17.3492H96.4801V16.4365ZM96.4801 17.3492H97.3928V18.2619H96.4801V17.3492ZM96.4801 18.2619H97.3928V19.1746H96.4801V18.2619ZM96.4801 19.1746H97.3928V20.0873H96.4801V19.1746ZM97.3928 19.1746H98.3055V20.0873H97.3928V19.1746ZM97.3928 18.2619H98.3055V19.1746H97.3928V18.2619ZM97.3928 20.0873H98.3055V21H97.3928V20.0873ZM96.4801 20.0873H97.3928V21H96.4801V20.0873ZM96.4801 21H97.3928V21.9127H96.4801V21ZM95.5674 21H96.4801V21.9127H95.5674V21ZM95.5674 21.9127H96.4801V22.8254H95.5674V21.9127ZM94.6547 21.9127H95.5674V22.8254H94.6547V21.9127ZM94.6547 22.8254H95.5674V23.7381H94.6547V22.8254ZM101.046 19.1746H101.959V20.0873H101.046V19.1746ZM100.134 19.1746H101.046V20.0873H100.134V19.1746ZM101.959 19.1746H102.872V20.0873H101.959V19.1746ZM101.046 20.0873H101.959V21H101.046V20.0873ZM101.959 20.0873H102.872V21H101.959V20.0873ZM101.046 17.3492H101.959V18.2619H101.046V17.3492ZM101.959 17.3492H102.872V18.2619H101.959V17.3492ZM101.959 16.4365H102.872V17.3492H101.959V16.4365ZM101.959 15.5238H102.872V16.4365H101.959V15.5238ZM101.046 15.5238H101.959V16.4365H101.046V15.5238ZM101.046 16.4365H101.959V17.3492H101.046V16.4365ZM101.959 14.6111H102.872V15.5238H101.959V14.6111ZM102.872 13.6984H103.784V14.6111H102.872V13.6984ZM104.697 13.6984H105.61V14.6111H104.697V13.6984ZM103.784 13.6984H104.697V14.6111H103.784V13.6984ZM104.697 14.6111H105.61V15.5238H104.697V14.6111ZM102.872 19.1746H103.784V20.0873H102.872V19.1746ZM103.784 14.6111H104.697V15.5238H103.784V14.6111ZM105.61 14.6111H106.522V15.5238H105.61V14.6111ZM105.61 15.5238H106.522V16.4365H105.61V15.5238ZM104.697 15.5238H105.61V16.4365H104.697V15.5238ZM103.784 16.4365H104.697V17.3492H103.784V16.4365ZM102.872 16.4365H103.784V17.3492H102.872V16.4365ZM101.046 18.2619H101.959V19.1746H101.046V18.2619ZM101.959 18.2619H102.872V19.1746H101.959V18.2619ZM103.784 19.1746H104.697V20.0873H103.784V19.1746ZM110.171 13.6984H111.084V14.6111H110.171V13.6984ZM111.084 13.6984H111.997V14.6111H111.084V13.6984ZM109.259 14.6111H110.171V15.5238H109.259V14.6111ZM110.171 14.6111H111.084V15.5238H110.171V14.6111ZM111.084 14.6111H111.997V15.5238H111.084V14.6111ZM111.997 14.6111H112.91V15.5238H111.997V14.6111ZM112.91 13.6984H113.822V14.6111H112.91V13.6984ZM108.346 15.5238H109.259V16.4365H108.346V15.5238ZM108.346 16.4365H109.259V17.3492H108.346V16.4365ZM112.91 12.7857H113.822V13.6984H112.91V12.7857ZM112.91 15.5238H113.822V16.4365H112.91V15.5238ZM109.259 15.5238H110.171V16.4365H109.259V15.5238ZM109.259 16.4365H110.171V17.3492H109.259V16.4365ZM108.346 17.3492H109.259V18.2619H108.346V17.3492ZM109.259 17.3492H110.171V18.2619H109.259V17.3492ZM110.171 17.3492H111.084V18.2619H110.171V17.3492ZM111.084 16.4365H111.997V17.3492H111.084V16.4365ZM111.997 16.4365H112.91V17.3492H111.997V16.4365ZM109.259 18.2619H110.171V19.1746H109.259V18.2619ZM108.346 19.1746H109.259V20.0873H108.346V19.1746ZM109.259 19.1746H110.171V20.0873H109.259V19.1746ZM110.171 19.1746H111.084V20.0873H110.171V19.1746ZM111.084 19.1746H111.997V20.0873H111.084V19.1746ZM111.997 19.1746H112.91V20.0873H111.997V19.1746ZM110.171 20.0873H111.084V21H110.171V20.0873ZM111.084 20.0873H111.997V21H111.084V20.0873ZM107.433 20.0873H108.346V21H107.433V20.0873ZM111.997 17.3492H112.91V18.2619H111.997V17.3492ZM111.997 18.2619H112.91V19.1746H111.997V18.2619ZM112.91 17.3492H113.822V18.2619H112.91V17.3492ZM112.91 18.2619H113.822V19.1746H112.91V18.2619ZM120.213 15.5238H121.126V16.4365H120.213V15.5238ZM121.126 15.5238H122.038V16.4365H121.126V15.5238ZM122.038 15.5238H122.951V16.4365H122.038V15.5238ZM122.951 15.5238H123.864V16.4365H122.951V15.5238ZM123.864 15.5238H124.776V16.4365H123.864V15.5238ZM119.3 16.4365H120.213V17.3492H119.3V16.4365ZM120.213 16.4365H121.126V17.3492H120.213V16.4365ZM121.126 16.4365H122.038V17.3492H121.126V16.4365ZM122.038 16.4365H122.951V17.3492H122.038V16.4365ZM122.951 16.4365H123.864V17.3492H122.951V16.4365ZM131.163 19.1746H132.075V20.0873H131.163V19.1746ZM130.25 19.1746H131.163V20.0873H130.25V19.1746ZM132.075 19.1746H132.988V20.0873H132.075V19.1746ZM131.163 20.0873H132.075V21H131.163V20.0873ZM132.075 20.0873H132.988V21H132.075V20.0873ZM131.163 18.2619H132.075V19.1746H131.163V18.2619ZM132.075 18.2619H132.988V19.1746H132.075V18.2619ZM132.075 17.3492H132.988V18.2619H132.075V17.3492ZM132.075 16.4365H132.988V17.3492H132.075V16.4365ZM131.163 16.4365H132.075V17.3492H131.163V16.4365ZM131.163 17.3492H132.075V18.2619H131.163V17.3492ZM132.075 15.5238H132.988V16.4365H132.075V15.5238ZM134.813 14.6111H135.726V15.5238H134.813V14.6111ZM133.901 14.6111H134.813V15.5238H133.901V14.6111ZM132.988 19.1746H133.901V20.0873H132.988V19.1746ZM132.988 13.6984H133.901V14.6111H132.988V13.6984ZM133.901 13.6984H134.813V14.6111H133.901V13.6984ZM134.813 13.6984H135.726V14.6111H134.813V13.6984ZM132.075 14.6111H132.988V15.5238H132.075V14.6111ZM131.163 15.5238H132.075V16.4365H131.163V15.5238ZM133.901 19.1746H134.813V20.0873H133.901V19.1746ZM137.545 19.1746H138.458V20.0873H137.545V19.1746ZM138.458 19.1746H139.371V20.0873H138.458V19.1746ZM139.371 19.1746H140.283V20.0873H139.371V19.1746ZM140.283 19.1746H141.196V20.0873H140.283V19.1746ZM138.458 20.0873H139.371V21H138.458V20.0873ZM139.371 20.0873H140.283V21H139.371V20.0873ZM138.458 18.2619H139.371V19.1746H138.458V18.2619ZM139.371 18.2619H140.283V19.1746H139.371V18.2619ZM139.371 17.3492H140.283V18.2619H139.371V17.3492ZM139.371 16.4365H140.283V17.3492H139.371V16.4365ZM139.371 15.5238H140.283V16.4365H139.371V15.5238ZM138.458 15.5238H139.371V16.4365H138.458V15.5238ZM138.458 16.4365H139.371V17.3492H138.458V16.4365ZM138.458 17.3492H139.371V18.2619H138.458V17.3492ZM139.371 14.6111H140.283V15.5238H139.371V14.6111ZM138.458 14.6111H139.371V15.5238H138.458V14.6111ZM137.545 14.6111H138.458V15.5238H137.545V14.6111ZM136.633 14.6111H137.545V15.5238H136.633V14.6111ZM137.545 13.6984H138.458V14.6111H137.545V13.6984ZM138.458 13.6984H139.371V14.6111H138.458V13.6984ZM140.283 13.6984H141.196V14.6111H140.283V13.6984ZM141.196 13.6984H142.109V14.6111H141.196V13.6984ZM142.109 13.6984H143.021V14.6111H142.109V13.6984ZM141.196 14.6111H142.109V15.5238H141.196V14.6111ZM142.109 14.6111H143.021V15.5238H142.109V14.6111ZM143.928 19.1746H144.841V20.0873H143.928V19.1746ZM143.015 19.1746H143.928V20.0873H143.015V19.1746ZM144.841 19.1746H145.753V20.0873H144.841V19.1746ZM143.928 20.0873H144.841V21H143.928V20.0873ZM144.841 20.0873H145.753V21H144.841V20.0873ZM143.928 17.3492H144.841V18.2619H143.928V17.3492ZM144.841 17.3492H145.753V18.2619H144.841V17.3492ZM144.841 16.4365H145.753V17.3492H144.841V16.4365ZM144.841 15.5238H145.753V16.4365H144.841V15.5238ZM143.928 15.5238H144.841V16.4365H143.928V15.5238ZM143.928 16.4365H144.841V17.3492H143.928V16.4365ZM144.841 14.6111H145.753V15.5238H144.841V14.6111ZM145.753 13.6984H146.666V14.6111H145.753V13.6984ZM147.579 13.6984H148.491V14.6111H147.579V13.6984ZM146.666 13.6984H147.579V14.6111H146.666V13.6984ZM147.579 14.6111H148.491V15.5238H147.579V14.6111ZM145.753 19.1746H146.666V20.0873H145.753V19.1746ZM146.666 14.6111H147.579V15.5238H146.666V14.6111ZM148.491 14.6111H149.404V15.5238H148.491V14.6111ZM148.491 15.5238H149.404V16.4365H148.491V15.5238ZM147.579 15.5238H148.491V16.4365H147.579V15.5238ZM146.666 16.4365H147.579V17.3492H146.666V16.4365ZM145.753 16.4365H146.666V17.3492H145.753V16.4365ZM143.928 18.2619H144.841V19.1746H143.928V18.2619ZM144.841 18.2619H145.753V19.1746H144.841V18.2619ZM146.666 19.1746H147.579V20.0873H146.666V19.1746ZM151.228 19.1746H152.14V20.0873H151.228V19.1746ZM152.14 19.1746H153.053V20.0873H152.14V19.1746ZM153.053 19.1746H153.966V20.0873H153.053V19.1746ZM153.966 19.1746H154.879V20.0873H153.966V19.1746ZM152.14 20.0873H153.053V21H152.14V20.0873ZM153.053 20.0873H153.966V21H153.053V20.0873ZM150.315 19.1746H151.228V20.0873H150.315V19.1746ZM151.228 18.2619H152.14V19.1746H151.228V18.2619ZM151.228 17.3492H152.14V18.2619H151.228V17.3492ZM151.228 16.4365H152.14V17.3492H151.228V16.4365ZM152.14 18.2619H153.053V19.1746H152.14V18.2619ZM152.14 17.3492H153.053V18.2619H152.14V17.3492ZM152.14 16.4365H153.053V17.3492H152.14V16.4365ZM152.14 15.5238H153.053V16.4365H152.14V15.5238ZM154.879 14.6111H155.791V15.5238H154.879V14.6111ZM154.879 15.5238H155.791V16.4365H154.879V15.5238ZM155.791 15.5238H156.704V16.4365H155.791V15.5238ZM154.879 16.4365H155.791V17.3492H154.879V16.4365ZM155.791 16.4365H156.704V17.3492H155.791V16.4365ZM155.791 17.3492H156.704V18.2619H155.791V17.3492ZM154.879 17.3492H155.791V18.2619H154.879V17.3492ZM154.879 18.2619H155.791V19.1746H154.879V18.2619ZM155.791 18.2619H156.704V19.1746H155.791V18.2619ZM154.879 19.1746H155.791V20.0873H154.879V19.1746ZM154.879 20.0873H155.791V21H154.879V20.0873ZM155.791 20.0873H156.704V21H155.791V20.0873ZM155.791 19.1746H156.704V20.0873H155.791V19.1746ZM156.704 19.1746H157.617V20.0873H156.704V19.1746ZM153.053 13.6984H153.966V14.6111H153.053V13.6984ZM153.966 13.6984H154.879V14.6111H153.966V13.6984ZM154.879 13.6984H155.791V14.6111H154.879V13.6984ZM156.704 14.6111H157.617V15.5238H156.704V14.6111ZM155.791 14.6111H156.704V15.5238H155.791V14.6111ZM152.14 14.6111H153.053V15.5238H152.14V14.6111ZM151.228 15.5238H152.14V16.4365H151.228V15.5238ZM158.532 19.1746H159.445V20.0873H158.532V19.1746ZM159.445 19.1746H160.357V20.0873H159.445V19.1746ZM160.357 19.1746H161.27V20.0873H160.357V19.1746ZM161.27 19.1746H162.183V20.0873H161.27V19.1746ZM162.183 19.1746H163.095V20.0873H162.183V19.1746ZM160.357 20.0873H161.27V21H160.357V20.0873ZM161.27 20.0873H162.183V21H161.27V20.0873ZM159.445 18.2619H160.357V19.1746H159.445V18.2619ZM160.357 18.2619H161.27V19.1746H160.357V18.2619ZM160.357 17.3492H161.27V18.2619H160.357V17.3492ZM160.357 16.4365H161.27V17.3492H160.357V16.4365ZM159.445 16.4365H160.357V17.3492H159.445V16.4365ZM159.445 17.3492H160.357V18.2619H159.445V17.3492ZM159.445 15.5238H160.357V16.4365H159.445V15.5238ZM160.357 15.5238H161.27V16.4365H160.357V15.5238ZM160.357 14.6111H161.27V15.5238H160.357V14.6111ZM160.357 13.6984H161.27V14.6111H160.357V13.6984ZM159.445 14.6111H160.357V15.5238H159.445V14.6111ZM159.445 13.6984H160.357V14.6111H159.445V13.6984ZM158.532 13.6984H159.445V14.6111H158.532V13.6984ZM161.27 13.6984H162.183V14.6111H161.27V13.6984ZM159.445 12.7857H160.357V13.6984H159.445V12.7857ZM160.357 12.7857H161.27V13.6984H160.357V12.7857ZM160.357 11.873H161.27V12.7857H160.357V11.873ZM159.445 11.873H160.357V12.7857H159.445V11.873ZM160.357 10.9603H161.27V11.873H160.357V10.9603ZM162.183 13.6984H163.095V14.6111H162.183V13.6984ZM164.929 19.1746H165.842V20.0873H164.929V19.1746ZM164.016 19.1746H164.929V20.0873H164.016V19.1746ZM165.842 19.1746H166.754V20.0873H165.842V19.1746ZM164.929 20.0873H165.842V21H164.929V20.0873ZM165.842 20.0873H166.754V21H165.842V20.0873ZM164.929 17.3492H165.842V18.2619H164.929V17.3492ZM165.842 17.3492H166.754V18.2619H165.842V17.3492ZM165.842 16.4365H166.754V17.3492H165.842V16.4365ZM165.842 15.5238H166.754V16.4365H165.842V15.5238ZM164.929 15.5238H165.842V16.4365H164.929V15.5238ZM164.929 16.4365H165.842V17.3492H164.929V16.4365ZM165.842 14.6111H166.754V15.5238H165.842V14.6111ZM166.754 13.6984H167.667V14.6111H166.754V13.6984ZM168.58 13.6984H169.492V14.6111H168.58V13.6984ZM167.667 13.6984H168.58V14.6111H167.667V13.6984ZM168.58 14.6111H169.492V15.5238H168.58V14.6111ZM166.754 19.1746H167.667V20.0873H166.754V19.1746ZM167.667 14.6111H168.58V15.5238H167.667V14.6111ZM169.492 14.6111H170.405V15.5238H169.492V14.6111ZM169.492 15.5238H170.405V16.4365H169.492V15.5238ZM168.58 15.5238H169.492V16.4365H168.58V15.5238ZM167.667 16.4365H168.58V17.3492H167.667V16.4365ZM166.754 16.4365H167.667V17.3492H166.754V16.4365ZM164.929 18.2619H165.842V19.1746H164.929V18.2619ZM165.842 18.2619H166.754V19.1746H165.842V18.2619ZM167.667 19.1746H168.58V20.0873H167.667V19.1746ZM178.621 13.6984H179.534V14.6111H178.621V13.6984ZM179.534 13.6984H180.447V14.6111H179.534V13.6984ZM177.708 14.6111H178.621V15.5238H177.708V14.6111ZM178.621 14.6111H179.534V15.5238H178.621V14.6111ZM179.534 14.6111H180.447V15.5238H179.534V14.6111ZM180.447 14.6111H181.359V15.5238H180.447V14.6111ZM181.359 13.6984H182.272V14.6111H181.359V13.6984ZM176.796 15.5238H177.708V16.4365H176.796V15.5238ZM176.796 16.4365H177.708V17.3492H176.796V16.4365ZM181.359 12.7857H182.272V13.6984H181.359V12.7857ZM181.359 15.5238H182.272V16.4365H181.359V15.5238ZM177.708 15.5238H178.621V16.4365H177.708V15.5238ZM177.708 16.4365H178.621V17.3492H177.708V16.4365ZM176.796 17.3492H177.708V18.2619H176.796V17.3492ZM177.708 17.3492H178.621V18.2619H177.708V17.3492ZM178.621 17.3492H179.534V18.2619H178.621V17.3492ZM179.534 16.4365H180.447V17.3492H179.534V16.4365ZM180.447 16.4365H181.359V17.3492H180.447V16.4365ZM177.708 18.2619H178.621V19.1746H177.708V18.2619ZM176.796 19.1746H177.708V20.0873H176.796V19.1746ZM177.708 19.1746H178.621V20.0873H177.708V19.1746ZM178.621 19.1746H179.534V20.0873H178.621V19.1746ZM179.534 19.1746H180.447V20.0873H179.534V19.1746ZM180.447 19.1746H181.359V20.0873H180.447V19.1746ZM178.621 20.0873H179.534V21H178.621V20.0873ZM179.534 20.0873H180.447V21H179.534V20.0873ZM175.883 20.0873H176.796V21H175.883V20.0873ZM180.447 17.3492H181.359V18.2619H180.447V17.3492ZM180.447 18.2619H181.359V19.1746H180.447V18.2619ZM181.359 17.3492H182.272V18.2619H181.359V17.3492ZM181.359 18.2619H182.272V19.1746H181.359V18.2619ZM184.096 19.1746H185.008V20.0873H184.096V19.1746ZM183.183 19.1746H184.096V20.0873H183.183V19.1746ZM185.008 19.1746H185.921V20.0873H185.008V19.1746ZM184.096 20.0873H185.008V21H184.096V20.0873ZM185.008 20.0873H185.921V21H185.008V20.0873ZM184.096 18.2619H185.008V19.1746H184.096V18.2619ZM185.008 18.2619H185.921V19.1746H185.008V18.2619ZM185.008 17.3492H185.921V18.2619H185.008V17.3492ZM185.008 16.4365H185.921V17.3492H185.008V16.4365ZM184.096 16.4365H185.008V17.3492H184.096V16.4365ZM184.096 17.3492H185.008V18.2619H184.096V17.3492ZM185.008 15.5238H185.921V16.4365H185.008V15.5238ZM187.746 14.6111H188.659V15.5238H187.746V14.6111ZM186.834 14.6111H187.746V15.5238H186.834V14.6111ZM185.921 19.1746H186.834V20.0873H185.921V19.1746ZM185.921 13.6984H186.834V14.6111H185.921V13.6984ZM186.834 13.6984H187.746V14.6111H186.834V13.6984ZM187.746 13.6984H188.659V14.6111H187.746V13.6984ZM185.008 14.6111H185.921V15.5238H185.008V14.6111ZM184.096 15.5238H185.008V16.4365H184.096V15.5238ZM186.834 19.1746H187.746V20.0873H186.834V19.1746ZM190.478 19.1746H191.391V20.0873H190.478V19.1746ZM189.566 19.1746H190.478V20.0873H189.566V19.1746ZM191.391 19.1746H192.304V20.0873H191.391V19.1746ZM190.478 20.0873H191.391V21H190.478V20.0873ZM191.391 20.0873H192.304V21H191.391V20.0873ZM190.478 17.3492H191.391V18.2619H190.478V17.3492ZM191.391 17.3492H192.304V18.2619H191.391V17.3492ZM191.391 16.4365H192.304V17.3492H191.391V16.4365ZM191.391 15.5238H192.304V16.4365H191.391V15.5238ZM190.478 15.5238H191.391V16.4365H190.478V15.5238ZM190.478 16.4365H191.391V17.3492H190.478V16.4365ZM191.391 14.6111H192.304V15.5238H191.391V14.6111ZM192.304 13.6984H193.216V14.6111H192.304V13.6984ZM194.129 13.6984H195.042V14.6111H194.129V13.6984ZM193.216 13.6984H194.129V14.6111H193.216V13.6984ZM194.129 14.6111H195.042V15.5238H194.129V14.6111ZM192.304 19.1746H193.216V20.0873H192.304V19.1746ZM193.216 14.6111H194.129V15.5238H193.216V14.6111ZM195.042 14.6111H195.954V15.5238H195.042V14.6111ZM195.042 15.5238H195.954V16.4365H195.042V15.5238ZM194.129 15.5238H195.042V16.4365H194.129V15.5238ZM193.216 16.4365H194.129V17.3492H193.216V16.4365ZM192.304 16.4365H193.216V17.3492H192.304V16.4365ZM190.478 18.2619H191.391V19.1746H190.478V18.2619ZM191.391 18.2619H192.304V19.1746H191.391V18.2619ZM193.216 19.1746H194.129V20.0873H193.216V19.1746ZM197.778 19.1746H198.691V20.0873H197.778V19.1746ZM198.691 19.1746H199.603V20.0873H198.691V19.1746ZM199.603 19.1746H200.516V20.0873H199.603V19.1746ZM200.516 19.1746H201.429V20.0873H200.516V19.1746ZM198.691 20.0873H199.603V21H198.691V20.0873ZM199.603 20.0873H200.516V21H199.603V20.0873ZM202.342 19.1746H203.254V20.0873H202.342V19.1746ZM203.254 19.1746H204.167V20.0873H203.254V19.1746ZM204.167 19.1746H205.08V20.0873H204.167V19.1746ZM203.254 20.0873H204.167V21H203.254V20.0873ZM203.254 18.2619H204.167V19.1746H203.254V18.2619ZM202.342 18.2619H203.254V19.1746H202.342V18.2619ZM202.342 17.3492H203.254V18.2619H202.342V17.3492ZM202.342 16.4365H203.254V17.3492H202.342V16.4365ZM203.254 16.4365H204.167V17.3492H203.254V16.4365ZM203.254 17.3492H204.167V18.2619H203.254V17.3492ZM198.691 18.2619H199.603V19.1746H198.691V18.2619ZM199.603 18.2619H200.516V19.1746H199.603V18.2619ZM199.603 17.3492H200.516V18.2619H199.603V17.3492ZM198.691 17.3492H199.603V18.2619H198.691V17.3492ZM198.691 16.4365H199.603V17.3492H198.691V16.4365ZM199.603 16.4365H200.516V17.3492H199.603V16.4365ZM203.254 15.5238H204.167V16.4365H203.254V15.5238ZM202.342 15.5238H203.254V16.4365H202.342V15.5238ZM199.603 15.5238H200.516V16.4365H199.603V15.5238ZM198.691 14.6111H199.603V15.5238H198.691V14.6111ZM198.691 15.5238H199.603V16.4365H198.691V15.5238ZM204.167 14.6111H205.08V15.5238H204.167V14.6111ZM203.254 14.6111H204.167V15.5238H203.254V14.6111ZM202.342 14.6111H203.254V15.5238H202.342V14.6111ZM199.603 14.6111H200.516V15.5238H199.603V14.6111ZM200.516 14.6111H201.429V15.5238H200.516V14.6111ZM201.429 14.6111H202.342V15.5238H201.429V14.6111ZM197.778 14.6111H198.691V15.5238H197.778V14.6111ZM196.865 14.6111H197.778V15.5238H196.865V14.6111ZM197.778 13.6984H198.691V14.6111H197.778V13.6984ZM198.691 13.6984H199.603V14.6111H198.691V13.6984ZM201.429 13.6984H202.342V14.6111H201.429V13.6984ZM202.342 13.6984H203.254V14.6111H202.342V13.6984ZM206.912 19.1746H207.825V20.0873H206.912V19.1746ZM207.825 19.1746H208.738V20.0873H207.825V19.1746ZM208.738 19.1746H209.65V20.0873H208.738V19.1746ZM209.65 19.1746H210.563V20.0873H209.65V19.1746ZM207.825 20.0873H208.738V21H207.825V20.0873ZM208.738 20.0873H209.65V21H208.738V20.0873ZM205.999 19.1746H206.912V20.0873H205.999V19.1746ZM206.912 18.2619H207.825V19.1746H206.912V18.2619ZM206.912 17.3492H207.825V18.2619H206.912V17.3492ZM206.912 16.4365H207.825V17.3492H206.912V16.4365ZM207.825 18.2619H208.738V19.1746H207.825V18.2619ZM207.825 17.3492H208.738V18.2619H207.825V17.3492ZM207.825 16.4365H208.738V17.3492H207.825V16.4365ZM207.825 15.5238H208.738V16.4365H207.825V15.5238ZM210.563 14.6111H211.476V15.5238H210.563V14.6111ZM210.563 15.5238H211.476V16.4365H210.563V15.5238ZM211.476 15.5238H212.388V16.4365H211.476V15.5238ZM210.563 16.4365H211.476V17.3492H210.563V16.4365ZM211.476 16.4365H212.388V17.3492H211.476V16.4365ZM211.476 17.3492H212.388V18.2619H211.476V17.3492ZM210.563 17.3492H211.476V18.2619H210.563V17.3492ZM210.563 18.2619H211.476V19.1746H210.563V18.2619ZM211.476 18.2619H212.388V19.1746H211.476V18.2619ZM210.563 19.1746H211.476V20.0873H210.563V19.1746ZM210.563 20.0873H211.476V21H210.563V20.0873ZM211.476 20.0873H212.388V21H211.476V20.0873ZM211.476 19.1746H212.388V20.0873H211.476V19.1746ZM212.388 19.1746H213.301V20.0873H212.388V19.1746ZM208.738 13.6984H209.65V14.6111H208.738V13.6984ZM209.65 13.6984H210.563V14.6111H209.65V13.6984ZM210.563 13.6984H211.476V14.6111H210.563V13.6984ZM212.388 14.6111H213.301V15.5238H212.388V14.6111ZM211.476 14.6111H212.388V15.5238H211.476V14.6111ZM207.825 14.6111H208.738V15.5238H207.825V14.6111ZM206.912 15.5238H207.825V16.4365H206.912V15.5238ZM215.129 19.1746H216.042V20.0873H215.129V19.1746ZM216.042 19.1746H216.954V20.0873H216.042V19.1746ZM216.954 19.1746H217.867V20.0873H216.954V19.1746ZM217.867 19.1746H218.78V20.0873H217.867V19.1746ZM216.042 20.0873H216.954V21H216.042V20.0873ZM216.954 20.0873H217.867V21H216.954V20.0873ZM216.042 18.2619H216.954V19.1746H216.042V18.2619ZM216.954 18.2619H217.867V19.1746H216.954V18.2619ZM216.954 17.3492H217.867V18.2619H216.954V17.3492ZM216.954 16.4365H217.867V17.3492H216.954V16.4365ZM216.954 15.5238H217.867V16.4365H216.954V15.5238ZM216.042 15.5238H216.954V16.4365H216.042V15.5238ZM216.042 16.4365H216.954V17.3492H216.042V16.4365ZM216.042 17.3492H216.954V18.2619H216.042V17.3492ZM216.954 14.6111H217.867V15.5238H216.954V14.6111ZM216.042 14.6111H216.954V15.5238H216.042V14.6111ZM215.129 14.6111H216.042V15.5238H215.129V14.6111ZM214.216 14.6111H215.129V15.5238H214.216V14.6111ZM215.129 13.6984H216.042V14.6111H215.129V13.6984ZM216.042 13.6984H216.954V14.6111H216.042V13.6984ZM217.867 13.6984H218.78V14.6111H217.867V13.6984ZM218.78 13.6984H219.693V14.6111H218.78V13.6984ZM219.693 13.6984H220.605V14.6111H219.693V13.6984ZM218.78 14.6111H219.693V15.5238H218.78V14.6111ZM219.693 14.6111H220.605V15.5238H219.693V14.6111ZM221.516 19.1746H222.429V20.0873H221.516V19.1746ZM222.429 19.1746H223.342V20.0873H222.429V19.1746ZM223.342 19.1746H224.254V20.0873H223.342V19.1746ZM224.254 19.1746H225.167V20.0873H224.254V19.1746ZM222.429 20.0873H223.342V21H222.429V20.0873ZM223.342 20.0873H224.254V21H223.342V20.0873ZM223.342 18.2619H224.254V19.1746H223.342V18.2619ZM222.429 18.2619H223.342V19.1746H222.429V18.2619ZM222.429 17.3492H223.342V18.2619H222.429V17.3492ZM222.429 16.4365H223.342V17.3492H222.429V16.4365ZM223.342 16.4365H224.254V17.3492H223.342V16.4365ZM223.342 15.5238H224.254V16.4365H223.342V15.5238ZM223.342 17.3492H224.254V18.2619H223.342V17.3492ZM222.429 15.5238H223.342V16.4365H222.429V15.5238ZM222.429 14.6111H223.342V15.5238H222.429V14.6111ZM223.342 14.6111H224.254V15.5238H223.342V14.6111ZM223.342 13.6984H224.254V14.6111H223.342V13.6984ZM222.429 13.6984H223.342V14.6111H222.429V13.6984ZM221.516 14.6111H222.429V15.5238H221.516V14.6111ZM224.254 14.6111H225.167V15.5238H224.254V14.6111ZM223.342 10.9603H224.254V11.873H223.342V10.9603ZM222.429 10.9603H223.342V11.873H222.429V10.9603ZM222.429 10.0476H223.342V10.9603H222.429V10.0476ZM223.342 10.0476H224.254V10.9603H223.342V10.0476ZM226.083 19.1746H226.996V20.0873H226.083V19.1746ZM226.996 19.1746H227.909V20.0873H226.996V19.1746ZM227.909 19.1746H228.821V20.0873H227.909V19.1746ZM228.821 19.1746H229.734V20.0873H228.821V19.1746ZM227.909 20.0873H228.821V21H227.909V20.0873ZM230.647 19.1746H231.559V20.0873H230.647V19.1746ZM231.559 18.2619H232.472V19.1746H231.559V18.2619ZM230.647 18.2619H231.559V19.1746H230.647V18.2619ZM230.647 17.3492H231.559V18.2619H230.647V17.3492ZM230.647 16.4365H231.559V17.3492H230.647V16.4365ZM231.559 16.4365H232.472V17.3492H231.559V16.4365ZM231.559 17.3492H232.472V18.2619H231.559V17.3492ZM226.996 18.2619H227.909V19.1746H226.996V18.2619ZM227.909 18.2619H228.821V19.1746H227.909V18.2619ZM227.909 17.3492H228.821V18.2619H227.909V17.3492ZM226.996 17.3492H227.909V18.2619H226.996V17.3492ZM226.996 16.4365H227.909V17.3492H226.996V16.4365ZM231.559 15.5238H232.472V16.4365H231.559V15.5238ZM230.647 15.5238H231.559V16.4365H230.647V15.5238ZM227.909 15.5238H228.821V16.4365H227.909V15.5238ZM226.996 15.5238H227.909V16.4365H226.996V15.5238ZM232.472 14.6111H233.385V15.5238H232.472V14.6111ZM231.559 14.6111H232.472V15.5238H231.559V14.6111ZM230.647 14.6111H231.559V15.5238H230.647V14.6111ZM229.734 14.6111H230.647V15.5238H229.734V14.6111ZM228.821 13.6984H229.734V14.6111H228.821V13.6984ZM229.734 13.6984H230.647V14.6111H229.734V13.6984ZM230.647 13.6984H231.559V14.6111H230.647V13.6984ZM227.909 16.4365H228.821V17.3492H227.909V16.4365ZM227.909 14.6111H228.821V15.5238H227.909V14.6111ZM228.821 20.0873H229.734V21H228.821V20.0873ZM229.734 19.1746H230.647V20.0873H229.734V19.1746ZM237.038 13.6984H237.951V14.6111H237.038V13.6984ZM237.951 13.6984H238.864V14.6111H237.951V13.6984ZM236.126 14.6111H237.038V15.5238H236.126V14.6111ZM237.038 14.6111H237.951V15.5238H237.038V14.6111ZM237.951 14.6111H238.864V15.5238H237.951V14.6111ZM238.864 14.6111H239.776V15.5238H238.864V14.6111ZM239.776 13.6984H240.689V14.6111H239.776V13.6984ZM235.213 15.5238H236.126V16.4365H235.213V15.5238ZM235.213 16.4365H236.126V17.3492H235.213V16.4365ZM239.776 12.7857H240.689V13.6984H239.776V12.7857ZM239.776 15.5238H240.689V16.4365H239.776V15.5238ZM236.126 15.5238H237.038V16.4365H236.126V15.5238ZM236.126 16.4365H237.038V17.3492H236.126V16.4365ZM235.213 17.3492H236.126V18.2619H235.213V17.3492ZM236.126 17.3492H237.038V18.2619H236.126V17.3492ZM237.038 17.3492H237.951V18.2619H237.038V17.3492ZM237.951 16.4365H238.864V17.3492H237.951V16.4365ZM238.864 16.4365H239.776V17.3492H238.864V16.4365ZM236.126 18.2619H237.038V19.1746H236.126V18.2619ZM235.213 19.1746H236.126V20.0873H235.213V19.1746ZM236.126 19.1746H237.038V20.0873H236.126V19.1746ZM237.038 19.1746H237.951V20.0873H237.038V19.1746ZM237.951 19.1746H238.864V20.0873H237.951V19.1746ZM238.864 19.1746H239.776V20.0873H238.864V19.1746ZM237.038 20.0873H237.951V21H237.038V20.0873ZM237.951 20.0873H238.864V21H237.951V20.0873ZM234.3 20.0873H235.213V21H234.3V20.0873ZM238.864 17.3492H239.776V18.2619H238.864V17.3492ZM238.864 18.2619H239.776V19.1746H238.864V18.2619ZM239.776 17.3492H240.689V18.2619H239.776V17.3492ZM239.776 18.2619H240.689V19.1746H239.776V18.2619ZM7.9127 38.1746H8.8254V39.0873H7.9127V38.1746ZM8.8254 38.1746H9.7381V39.0873H8.8254V38.1746ZM9.7381 38.1746H10.6508V39.0873H9.7381V38.1746ZM10.6508 38.1746H11.5635V39.0873H10.6508V38.1746ZM9.7381 39.0873H10.6508V40H9.7381V39.0873ZM12.4762 38.1746H13.3889V39.0873H12.4762V38.1746ZM13.3889 37.2619H14.3016V38.1746H13.3889V37.2619ZM12.4762 37.2619H13.3889V38.1746H12.4762V37.2619ZM12.4762 36.3492H13.3889V37.2619H12.4762V36.3492ZM12.4762 35.4365H13.3889V36.3492H12.4762V35.4365ZM13.3889 35.4365H14.3016V36.3492H13.3889V35.4365ZM13.3889 36.3492H14.3016V37.2619H13.3889V36.3492ZM8.8254 37.2619H9.7381V38.1746H8.8254V37.2619ZM9.7381 37.2619H10.6508V38.1746H9.7381V37.2619ZM9.7381 36.3492H10.6508V37.2619H9.7381V36.3492ZM8.8254 36.3492H9.7381V37.2619H8.8254V36.3492ZM8.8254 35.4365H9.7381V36.3492H8.8254V35.4365ZM13.3889 34.5238H14.3016V35.4365H13.3889V34.5238ZM12.4762 34.5238H13.3889V35.4365H12.4762V34.5238ZM9.7381 34.5238H10.6508V35.4365H9.7381V34.5238ZM8.8254 34.5238H9.7381V35.4365H8.8254V34.5238ZM14.3016 33.6111H15.2143V34.5238H14.3016V33.6111ZM13.3889 33.6111H14.3016V34.5238H13.3889V33.6111ZM12.4762 33.6111H13.3889V34.5238H12.4762V33.6111ZM11.5635 33.6111H12.4762V34.5238H11.5635V33.6111ZM10.6508 32.6984H11.5635V33.6111H10.6508V32.6984ZM11.5635 32.6984H12.4762V33.6111H11.5635V32.6984ZM12.4762 32.6984H13.3889V33.6111H12.4762V32.6984ZM9.7381 35.4365H10.6508V36.3492H9.7381V35.4365ZM9.7381 33.6111H10.6508V34.5238H9.7381V33.6111ZM10.6508 39.0873H11.5635V40H10.6508V39.0873ZM11.5635 38.1746H12.4762V39.0873H11.5635V38.1746ZM16.1297 38.1746H17.0424V39.0873H16.1297V38.1746ZM17.9551 38.1746H18.8678V39.0873H17.9551V38.1746ZM18.8678 38.1746H19.7805V39.0873H18.8678V38.1746ZM17.0424 39.0873H17.9551V40H17.0424V39.0873ZM17.9551 39.0873H18.8678V40H17.9551V39.0873ZM17.0424 38.1746H17.9551V39.0873H17.0424V38.1746ZM17.0424 37.2619H17.9551V38.1746H17.0424V37.2619ZM17.0424 36.3492H17.9551V37.2619H17.0424V36.3492ZM17.0424 35.4365H17.9551V36.3492H17.0424V35.4365ZM17.0424 34.5238H17.9551V35.4365H17.0424V34.5238ZM17.0424 32.6984H17.9551V33.6111H17.0424V32.6984ZM17.9551 32.6984H18.8678V33.6111H17.9551V32.6984ZM17.9551 34.5238H18.8678V35.4365H17.9551V34.5238ZM17.9551 35.4365H18.8678V36.3492H17.9551V35.4365ZM17.9551 36.3492H18.8678V37.2619H17.9551V36.3492ZM17.9551 37.2619H18.8678V38.1746H17.9551V37.2619ZM16.1297 32.6984H17.0424V33.6111H16.1297V32.6984ZM18.8678 32.6984H19.7805V33.6111H18.8678V32.6984ZM17.0424 31.7857H17.9551V32.6984H17.0424V31.7857ZM17.9551 31.7857H18.8678V32.6984H17.9551V31.7857ZM17.9551 30.873H18.8678V31.7857H17.9551V30.873ZM17.0424 30.873H17.9551V31.7857H17.0424V30.873ZM17.9551 29.9603H18.8678V30.873H17.9551V29.9603ZM18.8678 29.0476H19.7805V29.9603H18.8678V29.0476ZM19.7805 29.0476H20.6931V29.9603H19.7805V29.0476ZM20.6931 29.0476H21.6058V29.9603H20.6931V29.0476ZM20.6931 29.9603H21.6058V30.873H20.6931V29.9603ZM19.7805 29.9603H20.6931V30.873H19.7805V29.9603ZM17.0424 33.6111H17.9551V34.5238H17.0424V33.6111ZM17.9551 33.6111H18.8678V34.5238H17.9551V33.6111ZM19.7805 32.6984H20.6931V33.6111H19.7805V32.6984ZM26.1809 38.1746H27.0936V39.0873H26.1809V38.1746ZM27.0936 38.1746H28.0063V39.0873H27.0936V38.1746ZM28.0063 38.1746H28.919V39.0873H28.0063V38.1746ZM28.919 38.1746H29.8317V39.0873H28.919V38.1746ZM29.8317 38.1746H30.7444V39.0873H29.8317V38.1746ZM28.0063 39.0873H28.919V40H28.0063V39.0873ZM28.919 39.0873H29.8317V40H28.919V39.0873ZM30.7444 38.1746H31.6571V39.0873H30.7444V38.1746ZM27.0936 37.2619H28.0063V38.1746H27.0936V37.2619ZM27.0936 36.3492H28.0063V37.2619H27.0936V36.3492ZM28.0063 36.3492H28.919V37.2619H28.0063V36.3492ZM28.0063 37.2619H28.919V38.1746H28.0063V37.2619ZM28.0063 32.6984H28.919V33.6111H28.0063V32.6984ZM28.0063 34.5238H28.919V35.4365H28.0063V34.5238ZM28.0063 35.4365H28.919V36.3492H28.0063V35.4365ZM27.0936 35.4365H28.0063V36.3492H27.0936V35.4365ZM27.0936 34.5238H28.0063V35.4365H27.0936V34.5238ZM28.919 31.7857H29.8317V32.6984H28.919V31.7857ZM29.8317 31.7857H30.7444V32.6984H29.8317V31.7857ZM30.7444 31.7857H31.6571V32.6984H30.7444V31.7857ZM29.8317 32.6984H30.7444V33.6111H29.8317V32.6984ZM30.7444 32.6984H31.6571V33.6111H30.7444V32.6984ZM31.6571 32.6984H32.5698V33.6111H31.6571V32.6984ZM30.7444 34.5238H31.6571V35.4365H30.7444V34.5238ZM31.6571 34.5238H32.5698V35.4365H31.6571V34.5238ZM31.6571 35.4365H32.5698V36.3492H31.6571V35.4365ZM31.6571 36.3492H32.5698V37.2619H31.6571V36.3492ZM30.7444 36.3492H31.6571V37.2619H30.7444V36.3492ZM30.7444 35.4365H31.6571V36.3492H30.7444V35.4365ZM30.7444 37.2619H31.6571V38.1746H30.7444V37.2619ZM31.6571 37.2619H32.5698V38.1746H31.6571V37.2619ZM29.8317 30.873H30.7444V31.7857H29.8317V30.873ZM28.919 30.873H29.8317V31.7857H28.919V30.873ZM28.0063 30.873H28.919V31.7857H28.0063V30.873ZM28.919 29.9603H29.8317V30.873H28.919V29.9603ZM28.0063 29.9603H28.919V30.873H28.0063V29.9603ZM27.0936 29.0476H28.0063V29.9603H27.0936V29.0476ZM27.0936 29.9603H28.0063V30.873H27.0936V29.9603ZM27.0936 33.6111H28.0063V34.5238H27.0936V33.6111ZM28.0063 33.6111H28.919V34.5238H28.0063V33.6111ZM30.7444 33.6111H31.6571V34.5238H30.7444V33.6111ZM31.6571 33.6111H32.5698V34.5238H31.6571V33.6111ZM34.3934 38.1746H35.3061V39.0873H34.3934V38.1746ZM33.4807 38.1746H34.3934V39.0873H33.4807V38.1746ZM35.3061 38.1746H36.2188V39.0873H35.3061V38.1746ZM34.3934 39.0873H35.3061V40H34.3934V39.0873ZM35.3061 39.0873H36.2188V40H35.3061V39.0873ZM34.3934 36.3492H35.3061V37.2619H34.3934V36.3492ZM35.3061 36.3492H36.2188V37.2619H35.3061V36.3492ZM35.3061 35.4365H36.2188V36.3492H35.3061V35.4365ZM35.3061 34.5238H36.2188V35.4365H35.3061V34.5238ZM34.3934 34.5238H35.3061V35.4365H34.3934V34.5238ZM34.3934 35.4365H35.3061V36.3492H34.3934V35.4365ZM35.3061 33.6111H36.2188V34.5238H35.3061V33.6111ZM36.2188 32.6984H37.1315V33.6111H36.2188V32.6984ZM38.0442 32.6984H38.9569V33.6111H38.0442V32.6984ZM37.1315 32.6984H38.0442V33.6111H37.1315V32.6984ZM38.0442 33.6111H38.9569V34.5238H38.0442V33.6111ZM36.2188 38.1746H37.1315V39.0873H36.2188V38.1746ZM37.1315 33.6111H38.0442V34.5238H37.1315V33.6111ZM38.9569 33.6111H39.8696V34.5238H38.9569V33.6111ZM38.9569 34.5238H39.8696V35.4365H38.9569V34.5238ZM38.0442 34.5238H38.9569V35.4365H38.0442V34.5238ZM37.1315 35.4365H38.0442V36.3492H37.1315V35.4365ZM36.2188 35.4365H37.1315V36.3492H36.2188V35.4365ZM34.3934 37.2619H35.3061V38.1746H34.3934V37.2619ZM35.3061 37.2619H36.2188V38.1746H35.3061V37.2619ZM37.1315 38.1746H38.0442V39.0873H37.1315V38.1746ZM41.6932 38.1746H42.6059V39.0873H41.6932V38.1746ZM42.6059 38.1746H43.5186V39.0873H42.6059V38.1746ZM43.5186 38.1746H44.4313V39.0873H43.5186V38.1746ZM44.4313 38.1746H45.344V39.0873H44.4313V38.1746ZM42.6059 39.0873H43.5186V40H42.6059V39.0873ZM43.5186 39.0873H44.4313V40H43.5186V39.0873ZM40.7805 38.1746H41.6932V39.0873H40.7805V38.1746ZM41.6932 37.2619H42.6059V38.1746H41.6932V37.2619ZM41.6932 36.3492H42.6059V37.2619H41.6932V36.3492ZM41.6932 35.4365H42.6059V36.3492H41.6932V35.4365ZM42.6059 37.2619H43.5186V38.1746H42.6059V37.2619ZM42.6059 36.3492H43.5186V37.2619H42.6059V36.3492ZM42.6059 35.4365H43.5186V36.3492H42.6059V35.4365ZM42.6059 34.5238H43.5186V35.4365H42.6059V34.5238ZM45.344 33.6111H46.2567V34.5238H45.344V33.6111ZM45.344 34.5238H46.2567V35.4365H45.344V34.5238ZM46.2567 34.5238H47.1694V35.4365H46.2567V34.5238ZM45.344 35.4365H46.2567V36.3492H45.344V35.4365ZM46.2567 35.4365H47.1694V36.3492H46.2567V35.4365ZM46.2567 36.3492H47.1694V37.2619H46.2567V36.3492ZM45.344 36.3492H46.2567V37.2619H45.344V36.3492ZM45.344 37.2619H46.2567V38.1746H45.344V37.2619ZM46.2567 37.2619H47.1694V38.1746H46.2567V37.2619ZM45.344 38.1746H46.2567V39.0873H45.344V38.1746ZM45.344 39.0873H46.2567V40H45.344V39.0873ZM46.2567 39.0873H47.1694V40H46.2567V39.0873ZM46.2567 38.1746H47.1694V39.0873H46.2567V38.1746ZM47.1694 38.1746H48.0821V39.0873H47.1694V38.1746ZM43.5186 32.6984H44.4313V33.6111H43.5186V32.6984ZM44.4313 32.6984H45.344V33.6111H44.4313V32.6984ZM45.344 32.6984H46.2567V33.6111H45.344V32.6984ZM47.1694 33.6111H48.0821V34.5238H47.1694V33.6111ZM46.2567 33.6111H47.1694V34.5238H46.2567V33.6111ZM42.6059 33.6111H43.5186V34.5238H42.6059V33.6111ZM41.6932 34.5238H42.6059V35.4365H41.6932V34.5238ZM48.9975 38.1746H49.9102V39.0873H48.9975V38.1746ZM49.9102 38.1746H50.8229V39.0873H49.9102V38.1746ZM50.8229 38.1746H51.7356V39.0873H50.8229V38.1746ZM51.7356 38.1746H52.6483V39.0873H51.7356V38.1746ZM52.6483 38.1746H53.561V39.0873H52.6483V38.1746ZM50.8229 39.0873H51.7356V40H50.8229V39.0873ZM51.7356 39.0873H52.6483V40H51.7356V39.0873ZM49.9102 37.2619H50.8229V38.1746H49.9102V37.2619ZM50.8229 37.2619H51.7356V38.1746H50.8229V37.2619ZM50.8229 36.3492H51.7356V37.2619H50.8229V36.3492ZM50.8229 35.4365H51.7356V36.3492H50.8229V35.4365ZM49.9102 35.4365H50.8229V36.3492H49.9102V35.4365ZM49.9102 36.3492H50.8229V37.2619H49.9102V36.3492ZM49.9102 34.5238H50.8229V35.4365H49.9102V34.5238ZM50.8229 34.5238H51.7356V35.4365H50.8229V34.5238ZM50.8229 33.6111H51.7356V34.5238H50.8229V33.6111ZM50.8229 32.6984H51.7356V33.6111H50.8229V32.6984ZM49.9102 33.6111H50.8229V34.5238H49.9102V33.6111ZM49.9102 32.6984H50.8229V33.6111H49.9102V32.6984ZM48.9975 32.6984H49.9102V33.6111H48.9975V32.6984ZM51.7356 32.6984H52.6483V33.6111H51.7356V32.6984ZM49.9102 31.7857H50.8229V32.6984H49.9102V31.7857ZM50.8229 31.7857H51.7356V32.6984H50.8229V31.7857ZM50.8229 30.873H51.7356V31.7857H50.8229V30.873ZM49.9102 30.873H50.8229V31.7857H49.9102V30.873ZM50.8229 29.9603H51.7356V30.873H50.8229V29.9603ZM52.6483 32.6984H53.561V33.6111H52.6483V32.6984ZM56.3071 29.0476H57.2198V29.9603H56.3071V29.0476ZM55.3944 29.9603H56.3071V30.873H55.3944V29.9603ZM56.3071 29.9603H57.2198V30.873H56.3071V29.9603ZM56.3071 30.873H57.2198V31.7857H56.3071V30.873ZM55.3944 31.7857H56.3071V32.6984H55.3944V31.7857ZM55.3944 32.6984H56.3071V33.6111H55.3944V32.6984ZM55.3944 33.6111H56.3071V34.5238H55.3944V33.6111ZM55.3944 34.5238H56.3071V35.4365H55.3944V34.5238ZM55.3944 30.873H56.3071V31.7857H55.3944V30.873ZM56.3071 31.7857H57.2198V32.6984H56.3071V31.7857ZM56.3071 32.6984H57.2198V33.6111H56.3071V32.6984ZM56.3071 33.6111H57.2198V34.5238H56.3071V33.6111ZM55.3944 35.4365H56.3071V36.3492H55.3944V35.4365ZM55.3944 36.3492H56.3071V37.2619H55.3944V36.3492ZM55.3944 37.2619H56.3071V38.1746H55.3944V37.2619ZM56.3071 36.3492H57.2198V37.2619H56.3071V36.3492ZM56.3071 35.4365H57.2198V36.3492H56.3071V35.4365ZM56.3071 34.5238H57.2198V35.4365H56.3071V34.5238ZM56.3071 37.2619H57.2198V38.1746H56.3071V37.2619ZM56.3071 38.1746H57.2198V39.0873H56.3071V38.1746ZM55.3944 38.1746H56.3071V39.0873H55.3944V38.1746ZM55.3944 39.0873H56.3071V40H55.3944V39.0873ZM56.3071 39.0873H57.2198V40H56.3071V39.0873ZM54.4817 38.1746H55.3944V39.0873H54.4817V38.1746ZM57.2198 38.1746H58.1325V39.0873H57.2198V38.1746ZM57.2198 33.6111H58.1325V34.5238H57.2198V33.6111ZM58.1325 32.6984H59.0452V33.6111H58.1325V32.6984ZM59.0452 32.6984H59.9579V33.6111H59.0452V32.6984ZM59.0452 33.6111H59.9579V34.5238H59.0452V33.6111ZM59.9579 33.6111H60.8706V34.5238H59.9579V33.6111ZM60.8706 33.6111H61.7833V34.5238H60.8706V33.6111ZM59.9579 34.5238H60.8706V35.4365H59.9579V34.5238ZM59.9579 35.4365H60.8706V36.3492H59.9579V35.4365ZM59.9579 36.3492H60.8706V37.2619H59.9579V36.3492ZM59.0452 34.5238H59.9579V35.4365H59.0452V34.5238ZM59.0452 35.4365H59.9579V36.3492H59.0452V35.4365ZM59.0452 36.3492H59.9579V37.2619H59.0452V36.3492ZM59.0452 37.2619H59.9579V38.1746H59.0452V37.2619ZM59.0452 38.1746H59.9579V39.0873H59.0452V38.1746ZM59.9579 38.1746H60.8706V39.0873H59.9579V38.1746ZM59.9579 37.2619H60.8706V38.1746H59.9579V37.2619ZM59.9579 39.0873H60.8706V40H59.9579V39.0873ZM59.0452 39.0873H59.9579V40H59.0452V39.0873ZM59.0452 40H59.9579V40.9127H59.0452V40ZM58.1325 40H59.0452V40.9127H58.1325V40ZM58.1325 40.9127H59.0452V41.8254H58.1325V40.9127ZM57.2198 40.9127H58.1325V41.8254H57.2198V40.9127ZM57.2198 41.8254H58.1325V42.7381H57.2198V41.8254Z" fill="white"/>
</svg>
