<svg width="154" height="152" viewBox="0 0 154 152" fill="none" xmlns="http://www.w3.org/2000/svg">
<path d="M48.5804 147.691L44.927 147.263M95.9241 47.2743L93.9832 46.1332L100.947 36.7763L99.0066 33.353M99.0066 33.353L72.2913 29.131H68.9805L67.0396 28.104V23.882L62.9296 22.0562L61.9021 20.801V16.6931H64.0712L62.9296 15.2097C62.9296 14.9054 62.9296 13.8404 62.9296 12.0146C62.9296 9.73243 62.1304 9.96065 61.9021 9.276C61.6738 8.59134 62.5871 4.48342 62.9296 4.14109L75.2597 11.2159V3C82.2263 5.53692 93.0248 7.79297 104.03 9.87687L99.0066 33.353ZM151.902 69.4115L149.847 73.8617L146.422 75.1169L144.481 83.3328L142.198 80.7083L119.051 81.7352L120.734 86.8701H123.703L122.104 90.1793L125.073 93.1461L125.853 111.175L125.956 113.572M125.986 114.256L125.956 113.572M44.927 147.263L35.9078 146.207L35.337 149.973L28.3727 149.182L34.7662 105.698L3.94086 101.362L2 108.665M44.927 147.263L45.6121 145.409L69.0164 147.691L72.0012 112.887L91.7358 114.256L90.48 129.662L93.4484 131.83L106.692 136.394L127.47 138.106L125.956 113.572" stroke="white" stroke-width="3"/>
</svg>
