<svg width="175" height="174" viewBox="0 0 175 174" fill="none" xmlns="http://www.w3.org/2000/svg">
<path d="M94.4759 130.481C94.7042 134.437 97.3757 143.033 106.235 145.772L109.774 140.066L112.857 138.583L121.762 140.865L126.443 152.846L132.494 158.78C132.189 159.997 132.174 163.481 134.549 167.681C136.604 168.936 141.947 171.606 146.879 172.245L148.363 170.876C147.031 166.387 145.623 156.772 150.646 154.216C156.621 150.184 168.685 142.12 169.142 142.12C169.354 142.12 170.69 141.94 172.338 141.705L173.252 128.313L169.712 122.607V114.962V111.881M23.3494 42.7308L13.0743 41.7039L5.65338 30.7494L8.27924 23.4464L2 11.9214L3.59839 2C14.043 3.93238 24.1413 5.72489 30.7703 7.47115C36.5079 8.98261 50.7812 10.2668 66.5048 11.2656M23.3494 42.7308L20.2668 62.0153M23.3494 42.7308L24.0344 38.3947L63.4222 43.3014M20.2668 62.0153L18.8969 70.5735L30.9986 72.0102L60.2255 75.4801L61.8239 59.3908M20.2668 62.0153L3.08459 58.592M63.4222 43.3014L61.8239 59.3908M63.4222 43.3014L64.0701 36.569M61.8239 59.3908L94.4759 61.3306L97.1017 63.2705L100.869 62.2435L105.893 65.6668L104.066 58.4779L105.893 57.1086V43.3014L104.066 41.1333L105.893 37.9383M66.5048 11.2656L64.0701 36.569M66.5048 11.2656C78.6379 12.0364 91.6346 12.6373 102.239 13.0417V21.3925L105.893 37.9383M64.0701 36.569L105.893 37.9383" stroke="white" stroke-width="3"/>
</svg>
