<svg width="162" height="194" viewBox="0 0 162 194" fill="none" xmlns="http://www.w3.org/2000/svg">
<path d="M72.8982 160.269H75.8666L79.4058 157.873L79.634 156.047L84.6575 156.39L92.0784 164.035C92.4589 165.176 92.9917 167.96 92.0784 169.969L93.6768 175.788L98.7002 183.319L101.44 182.292L103.267 187.655C104.18 186.819 106.327 186.514 107.605 191.992L113.428 190.394V186.628V177.272L107.605 166.203L109.204 164.72L98.7002 149.087M98.7002 149.087C98.7402 146.528 99.3686 142.316 101.149 138.246M98.7002 149.087H95.1609V153.423H93.6768V150.912L75.8666 152.168L73.5833 149.885M132.265 61.7931L134.549 56.43L151.103 49.127L149.276 44.7909L147.221 45.8179L148.135 49.127L143.796 44.7909L144.082 39.2566M132.265 61.7931L124.045 57.6852M132.265 61.7931L130.21 52.6644L129.982 43.3075L125.53 27.7886M138.088 22.4255L139.458 10.33L142.769 2L150.19 3.71164L153.957 16.8342H158.067L160.237 19.5728L159.666 21.5126L144.367 33.7223L144.082 39.2566M138.088 22.4255H134.092V25.2782L116.625 29.5003L110.345 37.3738L111.944 42.851L95.5034 46.959L98.0151 51.8657C96.8209 52.91 95.2778 54.2255 93.5732 55.6313M138.088 22.4255L141.627 37.3738L144.082 39.2566M28.2585 29.5003C31.2726 28.6787 37.8867 22.9961 40.817 20.2574L42.3011 21.3985L38.1912 26.1911L45.1553 28.8156L57.9421 25.05V27.7886L62.623 26.1911L66.9614 31.0978L55.4304 31.5542L47.0962 34.1788L44.7251 39.5419M28.2585 29.5003C26.3177 30.1469 21.7054 30.9152 18.7827 28.8156M28.2585 29.5003L29.7427 31.5542L42.3011 34.8634L44.7251 39.5419M18.7827 28.8156L23.6919 25.05L26.2035 21.3985L32.9395 19.4587L33.6244 17.7471H21.5227L12.0468 13.4109L9.9917 15.2367L5.08252 13.4109L4.39746 8.16189H2V11.1287M18.7827 28.8156V34.1788L17.0702 34.2929L14.3301 37.4879L16.3851 38.8572V45.3614L24.7192 51.0669L25.4043 54.2619L26.546 56.2018L25.4043 58.5981L26.546 60.9944L29.7427 62.0214L45.8403 60.9944M44.7251 39.5419L42.7578 43.9921L48.2378 38.1726L45.8403 51.8657V60.9944M45.8403 60.9944V63.3907L47.8381 65.6158L49.8362 67.8409L51.5486 66.5287L53.2612 65.2164C53.6798 63.2005 54.5855 59.0545 54.8595 58.5981C55.1335 58.1417 52.6904 53.9196 51.4346 51.8657L53.2612 41.7099L59.6547 32.8094L68.5598 35.5481L69.359 42.851L66.2764 48.5565L68.5598 49.5835L70.2723 44.6768L72.5557 43.9921C73.8876 47.1491 76.643 53.5773 77.0083 54.0337C77.3736 54.4902 76.856 56.1257 76.5515 56.8865H74.0398L71.5282 64.0753L78.7207 65.9011C80.8814 65.3217 85.3508 62.1563 89.6809 58.7637C91.0155 57.7181 92.3368 56.651 93.5732 55.6313M122.561 64.0753L124.045 57.6852M124.045 57.6852L119.707 53.3491L94.4758 58.7637L93.5732 55.6313M82.1458 116.565L74.1541 117.821L82.1458 110.632L89.795 102.758L126.508 96.4823L129.64 101.96C129.982 103.253 130.667 105.953 130.667 106.41C130.667 106.866 127.242 110.632 125.53 112.458C119.319 112.731 117.462 117.745 117.31 120.217C115.881 120.349 114.684 120.765 113.687 121.358M82.1458 116.565L87.2833 113.941H96.6451L98.0151 116.565L105.322 115.196L113.687 121.358M82.1458 116.565L80.8899 118.505L82.1458 120.788L87.2833 124.325C89.9092 126.341 95.1609 130.464 95.1609 130.829C95.1609 131.194 97.0637 135.165 98.0151 137.105L101.149 138.246M113.687 121.358C110.538 123.231 109.377 126.867 109.204 128.889C105.303 131.012 102.756 134.571 101.149 138.246" stroke="white" stroke-width="3"/>
</svg>
