<svg width="55" height="88" viewBox="0 0 55 88" fill="none" xmlns="http://www.w3.org/2000/svg">
<path d="M47.6671 84.2731L31.1128 82.6756V76.856L29.0578 74.0033C27.1398 76.6506 24.3008 75.1063 23.121 74.0033L25.8611 72.5198L20.0385 67.0422L12.2751 64.5318L13.7593 58.8263L9.42091 50.154C10.6083 46.959 9.91564 43.5737 9.42091 42.2805C6.40688 40.8199 7.17561 36.4229 7.93673 34.407L4.74003 32.353L5.65337 28.3592C6.38404 21.7865 4.96836 17.5569 4.16919 16.2636L2 11.5852L4.74003 2L17.9941 3.14108L32.3686 4.76408L25.0619 29.2721L51.2063 68.4119L52.6905 74.0033L47.6671 84.2731ZM47.6671 84.2731V87.6963" stroke="white" stroke-width="3"/>
</svg>
