<svg width="445" height="567" viewBox="0 0 445 567" fill="none" xmlns="http://www.w3.org/2000/svg">
<path d="M153.833 137.317C153.5 106.483 156.133 42.4165 169.333 32.8165C185.833 20.8165 220.833 -11.6835 243.333 6.31651C265.833 24.3165 263.833 59.3164 260.833 65.3164C258.433 70.1164 227.5 87.9831 212.333 96.3164L205.333 176.316C206 175.316 208.033 173.916 210.833 176.316C213.633 178.716 213 185.316 212.333 188.316C217 186.983 226.733 185.816 228.333 191.816C229.933 197.816 230.333 200.983 230.333 201.816C245.5 204.983 276.433 213.316 278.833 221.316C281.233 229.316 279.833 233.983 278.833 235.316C290.333 233.483 315.233 234.416 322.833 252.816C328.333 255.15 339.533 263.016 340.333 275.816C345.666 275.483 356.333 275.516 356.333 278.316C356.333 281.116 354.666 293.816 353.833 299.816C360 299.483 372.133 299.716 371.333 303.316C370.533 306.916 368.333 313.483 367.333 316.316C376.166 327.15 394.433 350.816 396.833 358.816C399.833 368.816 413.333 401.816 411.833 417.816C410.333 433.816 405.333 455.816 404.833 458.816C404.333 461.816 417.333 472.316 420.833 481.316C424.333 490.316 424.833 499.316 425.833 500.316C426.833 501.316 430.833 499.816 434.333 506.816C437.833 513.816 437.333 526.316 434.333 528.316C437.333 528.65 443.433 530.616 443.833 535.816C444.333 542.316 440.833 551.316 430.833 548.816C430 554.316 427.333 565.316 423.333 565.316C418.333 565.316 415.333 565.816 411.833 556.316C409.033 548.716 408.333 544.483 408.333 543.316C405.333 547.983 398.033 554.816 392.833 544.816C387.633 534.816 386 515.316 385.833 506.816C381.666 495.316 372.233 472.616 367.833 473.816C362.333 475.316 365.333 479.816 363.833 483.316C362.633 486.116 354 481.816 349.833 479.316C353.166 483.483 358.833 491.916 354.833 492.316C350.833 492.716 345.166 490.816 342.833 489.816C352.833 496.65 373.233 511.016 374.833 513.816C376.833 517.316 380.833 522.816 377.333 527.316C374.533 530.916 370.5 530.15 368.833 529.316C372.666 531.316 380.033 536.916 378.833 543.316C377.633 549.716 369.333 546.983 365.333 544.816C367.833 548.483 371.033 556.516 363.833 559.316C356.633 562.116 346.833 555.483 342.833 551.816C334.5 543.15 317.433 524.916 315.833 521.316C313.833 516.816 310.333 506.816 297.833 504.316C285.333 501.816 218.833 473.316 233.333 443.316C222.666 431.983 201.033 409.516 199.833 410.316C198.333 411.316 196.333 441.816 192.833 453.316C189.333 464.816 187.833 472.316 184.333 475.816C180.833 479.316 178.833 483.816 175.333 482.316C171.833 480.816 168.333 481.316 167.833 474.816C166.5 476.65 162.333 479.416 156.333 475.816C151.234 472.757 152.996 467.073 155.175 463.491C152.845 466.372 148.67 469.154 144.333 464.816C139.133 459.616 147.166 451.983 151.833 448.816C151.166 448.816 150.233 446.616 151.833 437.816C153.833 426.816 151.333 419.816 158.333 400.316C163.933 384.716 167 375.816 167.833 373.316C166.999 372.65 163.533 372.916 156.333 379.316C147.333 387.316 135.333 404.816 129.333 413.316C123.333 421.816 116.333 434.816 114.333 446.816C112.333 458.816 118.333 464.816 111.833 466.816C106.633 468.416 105 466.15 104.833 464.816C104.833 467.65 104.133 473.316 101.333 473.316C97.833 473.316 95.833 471.816 94.333 467.816C93.9997 470.816 92.033 475.916 86.833 472.316C81.633 468.716 84.6664 462.816 86.833 460.316C85.833 457.316 83.9329 450.116 84.3329 445.316C84.8329 439.316 85.3329 422.316 88.3329 408.316C91.3329 394.316 96.8329 386.816 96.3329 382.316C95.8329 377.816 92.3331 362.816 94.333 346.316C95.933 333.116 96.3329 308.15 96.3329 297.316C90.3329 293.15 78.7329 280.516 80.3329 263.316C82.3329 241.816 85.8329 247.816 88.3329 237.816C90.8329 227.816 83.8329 201.316 88.3329 191.816C92.8329 182.316 100.333 173.816 100.333 164.316C100.333 154.816 93.3329 107.316 75.8329 96.3164C54.3329 101.483 9.43291 106.316 1.8329 84.3164C-2.16708 68.6498 6.23293 36.4166 71.8329 32.8165C79.9996 30.9831 100.133 34.2164 115.333 61.8164C130.533 89.4164 147.333 123.65 153.833 137.317Z" fill="white"/>
<path d="M153.833 137.317C153.5 106.483 156.133 42.4165 169.333 32.8165C185.833 20.8165 220.833 -11.6835 243.333 6.31651C265.833 24.3165 263.833 59.3164 260.833 65.3164C258.433 70.1164 227.5 87.9831 212.333 96.3164L205.333 176.316C206 175.316 208.033 173.916 210.833 176.316C213.633 178.716 213 185.316 212.333 188.316C217 186.983 226.733 185.816 228.333 191.816C229.933 197.816 230.333 200.983 230.333 201.816C245.5 204.983 276.433 213.316 278.833 221.316C281.233 229.316 279.833 233.983 278.833 235.316C290.333 233.483 315.233 234.416 322.833 252.816C328.333 255.15 339.533 263.016 340.333 275.816C345.666 275.483 356.333 275.516 356.333 278.316C356.333 281.116 354.666 293.816 353.833 299.816C360 299.483 372.133 299.716 371.333 303.316C370.533 306.916 368.333 313.483 367.333 316.316C376.166 327.15 394.433 350.816 396.833 358.816C399.833 368.816 413.333 401.816 411.833 417.816C410.333 433.816 405.333 455.816 404.833 458.816C404.333 461.816 417.333 472.316 420.833 481.316C424.333 490.316 424.833 499.316 425.833 500.316C426.833 501.316 430.833 499.816 434.333 506.816C437.833 513.816 437.333 526.316 434.333 528.316C437.333 528.65 443.433 530.616 443.833 535.816C444.333 542.316 440.833 551.316 430.833 548.816C430 554.316 427.333 565.316 423.333 565.316C418.333 565.316 415.333 565.816 411.833 556.316C409.033 548.716 408.333 544.483 408.333 543.316C405.333 547.983 398.033 554.816 392.833 544.816C387.633 534.816 386 515.316 385.833 506.816C381.666 495.316 372.233 472.616 367.833 473.816C362.333 475.316 365.333 479.816 363.833 483.316C362.633 486.116 354 481.816 349.833 479.316C353.166 483.483 358.833 491.916 354.833 492.316C350.833 492.716 345.166 490.816 342.833 489.816C352.833 496.65 373.233 511.016 374.833 513.816C376.833 517.316 380.833 522.816 377.333 527.316C374.533 530.916 370.5 530.15 368.833 529.316C372.666 531.316 380.033 536.916 378.833 543.316C377.633 549.716 369.333 546.983 365.333 544.816C367.833 548.483 371.033 556.516 363.833 559.316C356.633 562.116 346.833 555.483 342.833 551.816C334.5 543.15 317.433 524.916 315.833 521.316C313.833 516.816 310.333 506.816 297.833 504.316C285.333 501.816 218.833 473.316 233.333 443.316C222.666 431.983 201.033 409.516 199.833 410.316C198.333 411.316 196.333 441.816 192.833 453.316C189.333 464.816 187.833 472.316 184.333 475.816C180.833 479.316 178.833 483.816 175.333 482.316C171.833 480.816 168.333 481.316 167.833 474.816C166.5 476.65 162.333 479.416 156.333 475.816C150.333 472.216 153.833 464.983 156.333 461.816C154.5 464.983 149.533 470.016 144.333 464.816C139.133 459.616 147.166 451.983 151.833 448.816C151.166 448.816 150.233 446.616 151.833 437.816C153.833 426.816 151.333 419.816 158.333 400.316C163.933 384.716 167 375.816 167.833 373.316C166.999 372.65 163.533 372.916 156.333 379.316C147.333 387.316 135.333 404.816 129.333 413.316C123.333 421.816 116.333 434.816 114.333 446.816C112.333 458.816 118.333 464.816 111.833 466.816C106.633 468.416 105 466.15 104.833 464.816C104.833 467.65 104.133 473.316 101.333 473.316C97.833 473.316 95.833 471.816 94.333 467.816C93.9997 470.816 92.033 475.916 86.833 472.316C81.633 468.716 84.6664 462.816 86.833 460.316C85.833 457.316 83.9329 450.116 84.3329 445.316C84.8329 439.316 85.3329 422.316 88.3329 408.316C91.3329 394.316 96.8329 386.816 96.3329 382.316C95.8329 377.816 92.3331 362.816 94.333 346.316C95.933 333.116 96.3329 308.15 96.3329 297.316C90.3329 293.15 78.7329 280.516 80.3329 263.316C82.3329 241.816 85.8329 247.816 88.3329 237.816C90.8329 227.816 83.8329 201.316 88.3329 191.816C92.8329 182.316 100.333 173.816 100.333 164.316C100.333 154.816 93.3329 107.316 75.8329 96.3164C54.3329 101.483 9.4329 106.316 1.8329 84.3164C-2.16708 68.6498 6.23293 36.4166 71.8329 32.8165C79.9996 30.9831 100.133 34.2164 115.333 61.8164C130.533 89.4164 147.333 123.65 153.833 137.317Z" stroke="#FF0099" stroke-width="2"/>
</svg>
