<svg width="1019" height="38" viewBox="0 0 1019 38" fill="none" xmlns="http://www.w3.org/2000/svg">
<path d="M9.19048 3.61905H12.2381V6.66667H9.19048V3.61905ZM12.2381 3.61905H15.2857V6.66667H12.2381V3.61905ZM6.14286 6.66667H9.19048V9.71428H6.14286V6.66667ZM9.19048 6.66667H12.2381V9.71428H9.19048V6.66667ZM12.2381 6.66667H15.2857V9.71428H12.2381V6.66667ZM15.2857 6.66667H18.3333V9.71428H15.2857V6.66667ZM18.3333 3.61905H21.381V6.66667H18.3333V3.61905ZM3.09524 9.71428H6.14286V12.7619H3.09524V9.71428ZM3.09524 12.7619H6.14286V15.8095H3.09524V12.7619ZM18.3333 0.571428H21.381V3.61905H18.3333V0.571428ZM18.3333 9.71428H21.381V12.7619H18.3333V9.71428ZM6.14286 9.71428H9.19048V12.7619H6.14286V9.71428ZM6.14286 12.7619H9.19048V15.8095H6.14286V12.7619ZM3.09524 15.8095H6.14286V18.8571H3.09524V15.8095ZM6.14286 15.8095H9.19048V18.8571H6.14286V15.8095ZM9.19048 15.8095H12.2381V18.8571H9.19048V15.8095ZM12.2381 12.7619H15.2857V15.8095H12.2381V12.7619ZM15.2857 12.7619H18.3333V15.8095H15.2857V12.7619ZM6.14286 18.8571H9.19048V21.9048H6.14286V18.8571ZM3.09524 21.9048H6.14286V24.9524H3.09524V21.9048ZM6.14286 21.9048H9.19048V24.9524H6.14286V21.9048ZM9.19048 21.9048H12.2381V24.9524H9.19048V21.9048ZM12.2381 21.9048H15.2857V24.9524H12.2381V21.9048ZM15.2857 21.9048H18.3333V24.9524H15.2857V21.9048ZM9.19048 24.9524H12.2381V28H9.19048V24.9524ZM12.2381 24.9524H15.2857V28H12.2381V24.9524ZM0.0476191 24.9524H3.09524V28H0.0476191V24.9524ZM15.2857 15.8095H18.3333V18.8571H15.2857V15.8095ZM15.2857 18.8571H18.3333V21.9048H15.2857V18.8571ZM18.3333 15.8095H21.381V18.8571H18.3333V15.8095ZM18.3333 18.8571H21.381V21.9048H18.3333V18.8571ZM73.2202 21.9048H76.2679V24.9524H73.2202V21.9048ZM70.1726 21.9048H73.2202V24.9524H70.1726V21.9048ZM76.2679 21.9048H79.3155V24.9524H76.2679V21.9048ZM73.2202 24.9524H76.2679V28H73.2202V24.9524ZM76.2679 24.9524H79.3155V28H76.2679V24.9524ZM73.2202 18.8571H76.2679V21.9048H73.2202V18.8571ZM76.2679 18.8571H79.3155V21.9048H76.2679V18.8571ZM76.2679 15.8095H79.3155V18.8571H76.2679V15.8095ZM76.2679 12.7619H79.3155V15.8095H76.2679V12.7619ZM73.2202 12.7619H76.2679V15.8095H73.2202V12.7619ZM73.2202 15.8095H76.2679V18.8571H73.2202V15.8095ZM76.2679 9.71428H79.3155V12.7619H76.2679V9.71428ZM85.4107 6.66667H88.4583V9.71428H85.4107V6.66667ZM82.3631 6.66667H85.4107V9.71428H82.3631V6.66667ZM79.3155 21.9048H82.3631V24.9524H79.3155V21.9048ZM79.3155 3.61905H82.3631V6.66667H79.3155V3.61905ZM82.3631 3.61905H85.4107V6.66667H82.3631V3.61905ZM85.4107 3.61905H88.4583V6.66667H85.4107V3.61905ZM76.2679 6.66667H79.3155V9.71428H76.2679V6.66667ZM73.2202 9.71428H76.2679V12.7619H73.2202V9.71428ZM82.3631 21.9048H85.4107V24.9524H82.3631V21.9048ZM201.283 21.9048H204.33V24.9524H201.283V21.9048ZM198.235 21.9048H201.283V24.9524H198.235V21.9048ZM204.33 21.9048H207.378V24.9524H204.33V21.9048ZM201.283 24.9524H204.33V28H201.283V24.9524ZM204.33 24.9524H207.378V28H204.33V24.9524ZM201.283 15.8095H204.33V18.8571H201.283V15.8095ZM204.33 15.8095H207.378V18.8571H204.33V15.8095ZM204.33 12.7619H207.378V15.8095H204.33V12.7619ZM204.33 9.71428H207.378V12.7619H204.33V9.71428ZM201.283 9.71428H204.33V12.7619H201.283V9.71428ZM201.283 12.7619H204.33V15.8095H201.283V12.7619ZM204.33 6.66667H207.378V9.71428H204.33V6.66667ZM207.378 3.61905H210.426V6.66667H207.378V3.61905ZM213.473 3.61905H216.521V6.66667H213.473V3.61905ZM210.426 3.61905H213.473V6.66667H210.426V3.61905ZM213.473 6.66667H216.521V9.71428H213.473V6.66667ZM207.378 21.9048H210.426V24.9524H207.378V21.9048ZM210.426 6.66667H213.473V9.71428H210.426V6.66667ZM216.521 6.66667H219.568V9.71428H216.521V6.66667ZM216.521 9.71428H219.568V12.7619H216.521V9.71428ZM213.473 9.71428H216.521V12.7619H213.473V9.71428ZM210.426 12.7619H213.473V15.8095H210.426V12.7619ZM207.378 12.7619H210.426V15.8095H207.378V12.7619ZM201.283 18.8571H204.33V21.9048H201.283V18.8571ZM204.33 18.8571H207.378V21.9048H204.33V18.8571ZM210.426 21.9048H213.473V24.9524H210.426V21.9048ZM256.158 21.9048H259.205V24.9524H256.158V21.9048ZM259.205 21.9048H262.253V24.9524H259.205V21.9048ZM262.253 21.9048H265.301V24.9524H262.253V21.9048ZM265.301 21.9048H268.348V24.9524H265.301V21.9048ZM259.205 24.9524H262.253V28H259.205V24.9524ZM262.253 24.9524H265.301V28H262.253V24.9524ZM271.396 21.9048H274.443V24.9524H271.396V21.9048ZM274.443 21.9048H277.491V24.9524H274.443V21.9048ZM277.491 21.9048H280.539V24.9524H277.491V21.9048ZM274.443 24.9524H277.491V28H274.443V24.9524ZM274.443 18.8571H277.491V21.9048H274.443V18.8571ZM271.396 18.8571H274.443V21.9048H271.396V18.8571ZM271.396 15.8095H274.443V18.8571H271.396V15.8095ZM271.396 12.7619H274.443V15.8095H271.396V12.7619ZM274.443 12.7619H277.491V15.8095H274.443V12.7619ZM274.443 15.8095H277.491V18.8571H274.443V15.8095ZM259.205 18.8571H262.253V21.9048H259.205V18.8571ZM262.253 18.8571H265.301V21.9048H262.253V18.8571ZM262.253 15.8095H265.301V18.8571H262.253V15.8095ZM259.205 15.8095H262.253V18.8571H259.205V15.8095ZM259.205 12.7619H262.253V15.8095H259.205V12.7619ZM262.253 12.7619H265.301V15.8095H262.253V12.7619ZM274.443 9.71428H277.491V12.7619H274.443V9.71428ZM271.396 9.71428H274.443V12.7619H271.396V9.71428ZM262.253 9.71428H265.301V12.7619H262.253V9.71428ZM259.205 6.66667H262.253V9.71428H259.205V6.66667ZM259.205 9.71428H262.253V12.7619H259.205V9.71428ZM277.491 6.66667H280.539V9.71428H277.491V6.66667ZM274.443 6.66667H277.491V9.71428H274.443V6.66667ZM271.396 6.66667H274.443V9.71428H271.396V6.66667ZM262.253 6.66667H265.301V9.71428H262.253V6.66667ZM265.301 6.66667H268.348V9.71428H265.301V6.66667ZM268.348 6.66667H271.396V9.71428H268.348V6.66667ZM256.158 6.66667H259.205V9.71428H256.158V6.66667ZM253.11 6.66667H256.158V9.71428H253.11V6.66667ZM256.158 3.61905H259.205V6.66667H256.158V3.61905ZM259.205 3.61905H262.253V6.66667H259.205V3.61905ZM268.348 3.61905H271.396V6.66667H268.348V3.61905ZM271.396 3.61905H274.443V6.66667H271.396V3.61905ZM423.908 21.9048H426.955V24.9524H423.908V21.9048ZM426.955 21.9048H430.003V24.9524H426.955V21.9048ZM430.003 21.9048H433.051V24.9524H430.003V21.9048ZM433.051 21.9048H436.098V24.9524H433.051V21.9048ZM426.955 24.9524H430.003V28H426.955V24.9524ZM430.003 24.9524H433.051V28H430.003V24.9524ZM420.86 21.9048H423.908V24.9524H420.86V21.9048ZM423.908 18.8571H426.955V21.9048H423.908V18.8571ZM423.908 15.8095H426.955V18.8571H423.908V15.8095ZM423.908 12.7619H426.955V15.8095H423.908V12.7619ZM426.955 18.8571H430.003V21.9048H426.955V18.8571ZM426.955 15.8095H430.003V18.8571H426.955V15.8095ZM426.955 12.7619H430.003V15.8095H426.955V12.7619ZM426.955 9.71428H430.003V12.7619H426.955V9.71428ZM436.098 6.66667H439.146V9.71428H436.098V6.66667ZM436.098 9.71428H439.146V12.7619H436.098V9.71428ZM439.146 9.71428H442.193V12.7619H439.146V9.71428ZM436.098 12.7619H439.146V15.8095H436.098V12.7619ZM439.146 12.7619H442.193V15.8095H439.146V12.7619ZM439.146 15.8095H442.193V18.8571H439.146V15.8095ZM436.098 15.8095H439.146V18.8571H436.098V15.8095ZM436.098 18.8571H439.146V21.9048H436.098V18.8571ZM439.146 18.8571H442.193V21.9048H439.146V18.8571ZM436.098 21.9048H439.146V24.9524H436.098V21.9048ZM436.098 24.9524H439.146V28H436.098V24.9524ZM439.146 24.9524H442.193V28H439.146V24.9524ZM439.146 21.9048H442.193V24.9524H439.146V21.9048ZM442.193 21.9048H445.241V24.9524H442.193V21.9048ZM430.003 3.61905H433.051V6.66667H430.003V3.61905ZM433.051 3.61905H436.098V6.66667H433.051V3.61905ZM436.098 3.61905H439.146V6.66667H436.098V3.61905ZM442.193 6.66667H445.241V9.71428H442.193V6.66667ZM439.146 6.66667H442.193V9.71428H439.146V6.66667ZM426.955 6.66667H430.003V9.71428H426.955V6.66667ZM423.908 9.71428H426.955V12.7619H423.908V9.71428ZM527.595 21.9048H530.643V24.9524H527.595V21.9048ZM530.643 21.9048H533.69V24.9524H530.643V21.9048ZM533.69 21.9048H536.738V24.9524H533.69V21.9048ZM536.738 21.9048H539.786V24.9524H536.738V21.9048ZM530.643 24.9524H533.69V28H530.643V24.9524ZM533.69 24.9524H536.738V28H533.69V24.9524ZM530.643 18.8571H533.69V21.9048H530.643V18.8571ZM533.69 18.8571H536.738V21.9048H533.69V18.8571ZM533.69 15.8095H536.738V18.8571H533.69V15.8095ZM533.69 12.7619H536.738V15.8095H533.69V12.7619ZM533.69 9.71428H536.738V12.7619H533.69V9.71428ZM530.643 9.71428H533.69V12.7619H530.643V9.71428ZM530.643 12.7619H533.69V15.8095H530.643V12.7619ZM530.643 15.8095H533.69V18.8571H530.643V15.8095ZM533.69 6.66667H536.738V9.71428H533.69V6.66667ZM530.643 6.66667H533.69V9.71428H530.643V6.66667ZM527.595 6.66667H530.643V9.71428H527.595V6.66667ZM524.548 6.66667H527.595V9.71428H524.548V6.66667ZM527.595 3.61905H530.643V6.66667H527.595V3.61905ZM530.643 3.61905H533.69V6.66667H530.643V3.61905ZM536.738 3.61905H539.786V6.66667H536.738V3.61905ZM539.786 3.61905H542.833V6.66667H539.786V3.61905ZM542.833 3.61905H545.881V6.66667H542.833V3.61905ZM539.786 6.66667H542.833V9.71428H539.786V6.66667ZM542.833 6.66667H545.881V9.71428H542.833V6.66667ZM991.173 6.66667H994.22V9.71428H991.173V6.66667ZM994.22 6.66667H997.268V9.71428H994.22V6.66667ZM997.268 6.66667H1000.32V9.71428H997.268V6.66667ZM1000.32 6.66667H1003.36V9.71428H1000.32V6.66667ZM1003.36 6.66667H1006.41V9.71428H1003.36V6.66667ZM1006.41 6.66667H1009.46V9.71428H1006.41V6.66667ZM1009.46 6.66667H1012.51V9.71428H1009.46V6.66667ZM1012.51 6.66667H1015.55V9.71428H1012.51V6.66667ZM994.22 3.61905H997.268V6.66667H994.22V3.61905ZM997.268 3.61905H1000.32V6.66667H997.268V3.61905ZM1006.41 3.61905H1009.46V6.66667H1006.41V3.61905ZM1009.46 3.61905H1012.51V6.66667H1009.46V3.61905ZM1015.55 6.66667H1018.6V9.71428H1015.55V6.66667ZM1012.51 9.71428H1015.55V12.7619H1012.51V9.71428ZM1012.51 12.7619H1015.55V15.8095H1012.51V12.7619ZM1012.51 15.8095H1015.55V18.8571H1012.51V15.8095ZM1009.46 15.8095H1012.51V18.8571H1009.46V15.8095ZM1009.46 12.7619H1012.51V15.8095H1009.46V12.7619ZM1009.46 9.71428H1012.51V12.7619H1009.46V9.71428ZM997.268 9.71428H1000.32V12.7619H997.268V9.71428ZM1000.32 9.71428H1003.36V12.7619H1000.32V9.71428ZM1000.32 12.7619H1003.36V15.8095H1000.32V12.7619ZM1000.32 15.8095H1003.36V18.8571H1000.32V15.8095ZM997.268 15.8095H1000.32V18.8571H997.268V15.8095ZM997.268 12.7619H1000.32V15.8095H997.268V12.7619ZM997.268 18.8571H1000.32V21.9048H997.268V18.8571ZM1000.32 18.8571H1003.36V21.9048H1000.32V18.8571ZM1000.32 21.9048H1003.36V24.9524H1000.32V21.9048ZM997.268 21.9048H1000.32V24.9524H997.268V21.9048ZM1000.32 24.9524H1003.36V28H1000.32V24.9524ZM997.268 24.9524H1000.32V28H997.268V24.9524ZM994.22 24.9524H997.268V28H994.22V24.9524ZM994.22 28H997.268V31.0476H994.22V28ZM991.173 28H994.22V31.0476H991.173V28ZM991.173 31.0476H994.22V34.0952H991.173V31.0476ZM1009.46 21.9048H1012.51V24.9524H1009.46V21.9048ZM1012.51 18.8571H1015.55V21.9048H1012.51V18.8571ZM1009.46 18.8571H1012.51V21.9048H1009.46V18.8571ZM1006.41 18.8571H1009.46V21.9048H1006.41V18.8571ZM1009.46 24.9524H1012.51V28H1009.46V24.9524ZM1006.41 24.9524H1009.46V28H1006.41V24.9524ZM1003.36 24.9524H1006.41V28H1003.36V24.9524ZM1009.46 31.0476H1012.51V34.0952H1009.46V31.0476ZM1006.41 31.0476H1009.46V34.0952H1006.41V31.0476ZM1006.41 34.0952H1009.46V37.1429H1006.41V34.0952ZM1003.36 34.0952H1006.41V37.1429H1003.36V34.0952ZM1003.36 31.0476H1006.41V34.0952H1003.36V31.0476ZM1000.32 34.0952H1003.36V37.1429H1000.32V34.0952ZM997.268 34.0952H1000.32V37.1429H997.268V34.0952ZM994.22 34.0952H997.268V37.1429H994.22V34.0952ZM997.268 28H1000.32V31.0476H997.268V28Z" fill="white"/>
</svg>
