<svg width="1339" height="877" viewBox="0 0 1339 877" fill="none" xmlns="http://www.w3.org/2000/svg">
<path d="M185.631 588.907L119.065 582.037V557.01L110.802 544.742C103.089 556.127 91.6733 549.486 86.9295 544.742L97.9474 538.363L74.5344 514.808L43.3171 504.012L49.2851 479.476L31.8401 442.18C36.6145 428.44 33.8294 413.882 31.8401 408.32C19.7204 402.039 22.8116 383.13 25.8721 374.46L13.0179 365.627L16.6905 348.452C19.6286 320.186 13.936 301.997 10.7225 296.435L2 276.315L13.0179 235.094L14.8542 218.164L124.115 246.981M185.631 588.907V603.629M185.631 588.907L205.831 544.742L199.863 520.696M985.805 726.31H997.741L1011.97 716.005L1012.89 708.153L1033.09 709.626L1062.93 742.504C1064.46 747.412 1066.6 759.385 1062.93 768.022L1069.36 793.049L1089.56 825.437L1100.57 821.02L1107.92 844.084C1111.59 840.486 1120.22 839.177 1125.36 862.732L1148.78 855.862V839.668V799.428L1125.36 751.828L1131.79 745.449L1089.56 678.219M1089.56 678.219C1089.72 667.217 1092.24 649.104 1099.4 631.6M1089.56 678.219H1075.33V696.867H1069.36V686.071L997.741 691.469L988.559 681.654M1224.53 302.815L1233.71 279.75L1300.27 248.344L1292.93 229.696L1284.67 234.113L1288.34 248.344L1270.89 229.696L1272.04 205.896M1224.53 302.815L1191.47 285.148M1224.53 302.815L1216.26 263.556L1215.34 223.317L1197.44 156.578M1247.94 133.514L1253.45 81.4975L1266.76 45.6745L1296.6 53.0354L1311.75 109.469H1328.28L1337 121.246L1334.7 129.589L1273.19 182.096L1272.04 205.896M1247.94 133.514H1231.87V145.782L1161.63 163.939L1136.38 197.799L1142.81 221.354L1076.7 239.02L1086.8 260.121C1082 264.613 1075.79 270.27 1068.94 276.315M1247.94 133.514L1262.17 197.799L1272.04 205.896M806.305 163.939C818.425 160.406 845.021 135.968 856.804 124.191L862.772 129.098L846.245 149.708L874.249 160.995L925.666 144.801V156.578L944.488 149.708L961.933 170.809L915.566 172.772L882.053 184.059L872.519 207.123M806.305 163.939C798.501 166.72 779.954 170.024 768.202 160.995M806.305 163.939L812.273 172.772L862.772 187.003L872.519 207.123M768.202 160.995L787.942 144.801L798.042 129.098L825.128 120.755L827.882 113.395H779.22L741.116 94.7471L732.853 102.599L713.112 94.7471L710.358 72.1737H700.717V84.9325C688.347 84.5285 674.056 84.006 658.482 83.3709M768.202 160.995V184.059L761.316 184.55L750.298 198.29L758.561 204.179V232.15L792.074 256.686L794.828 270.427M190.681 264.538L207.667 192.401L199.863 187.494L227.867 147.255L220.062 132.533M190.681 264.538L259.773 279.26M190.681 264.538L124.115 246.981M220.062 132.533L112.638 114.376H99.3246L91.5203 109.96V91.8027L74.9935 83.9511L70.8618 78.5531V60.887H79.5842L74.9935 54.5076C74.9935 53.199 74.9935 48.6189 74.9935 40.7673C74.9935 30.9528 71.78 31.9342 70.8618 28.9899C69.9436 26.0455 73.6163 8.37943 74.9935 6.90725L124.574 37.3322V2C152.587 12.91 196.009 22.6122 240.262 31.5739M220.062 132.533L240.262 31.5739M240.262 31.5739C247.453 33.0302 254.666 34.467 261.838 35.8862M261.838 35.8862C303.837 44.1964 344.443 51.905 371.099 59.4148C394.17 65.9149 451.565 71.4374 514.791 75.733M261.838 35.8862L255.411 78.5531L280.661 128.116L270.102 159.523L299.942 206.632L341.259 211.049M341.259 211.049L328.864 293.981M341.259 211.049L344.013 192.401L502.395 213.503M328.864 293.981L323.355 330.786L372.017 336.965L489.541 351.887L495.968 282.695M328.864 293.981L259.773 279.26M502.395 213.503L495.968 282.695M502.395 213.503L505 184.55M259.773 279.26L229.703 457.393M229.703 457.393L353.654 476.04L327.946 663.04L355.949 666.442L358.245 650.248L394.512 654.788M229.703 457.393L221.899 488.799L205.831 479.966L199.863 520.696M495.968 282.695L627.265 291.037L637.824 299.379L652.973 294.963L673.173 309.685M673.173 309.685L665.827 278.769L673.173 272.88M673.173 309.685L692.573 372.988M514.791 75.733L505 184.55M514.791 75.733C563.579 79.0477 615.84 81.6319 658.482 83.3709M505 184.55L673.173 190.438M673.173 190.438L665.827 204.179L673.173 213.503V272.88M673.173 190.438L658.482 119.283V83.3709M673.173 272.88L794.828 270.427M794.828 270.427L799.419 278.769L794.828 289.074L799.419 299.379L812.273 303.796M872.519 207.123L864.608 226.261L886.644 201.234L877.003 260.121V299.379M812.273 303.796L877.003 299.379M812.273 303.796L824.668 319.99L816.405 339.128L802.633 344.526L794.828 379.858L785.647 368.572L692.573 372.988M877.003 299.379V309.685L885.037 319.254L893.071 328.823L899.957 323.18L906.843 317.536C908.527 308.867 912.169 291.037 913.271 289.074C914.372 287.111 904.548 268.954 899.498 260.121L906.843 216.447L932.552 178.17L968.36 189.948L971.574 221.354L959.178 245.89L968.36 250.307L975.246 229.206L984.428 226.261C989.784 239.838 1000.86 267.482 1002.33 269.445C1003.8 271.408 1001.72 278.442 1000.5 281.713H990.396L980.296 312.629L1009.22 320.481C1017.91 317.989 1035.88 304.376 1053.29 289.787C1058.66 285.29 1063.97 280.701 1068.94 276.315M692.573 372.988L699.34 395.071H711.276L704.849 409.302L716.785 422.061L719.922 499.595L720.339 509.901M1185.5 312.629L1191.47 285.148M1191.47 285.148L1174.03 266.501L1072.57 289.787L1068.94 276.315M720.458 512.845L720.339 509.901M394.512 654.788L409.203 656.627C408.743 664.315 413.059 682.832 433.993 695.395C434.911 712.406 445.653 749.374 481.278 761.152L495.509 736.616L507.904 730.236L543.713 740.051L562.535 791.577L586.866 817.094C585.642 822.329 585.58 837.312 595.129 855.371C603.393 860.769 624.878 872.252 644.71 875L650.678 869.111C645.322 849.809 639.66 808.458 659.859 797.465C683.884 780.126 732.394 745.449 734.23 745.449C735.083 745.449 740.455 744.673 747.084 743.662L750.757 686.071L736.525 661.535V628.656V615.406H726.426M394.512 654.788L397.266 646.813L491.378 656.627L503.38 506.956L582.734 512.845L577.684 579.093L589.62 588.417L642.873 608.046L726.426 615.406M199.863 520.696L94.7338 352.378L124.115 246.981M726.426 615.406L720.339 509.901M1022.99 538.363L990.855 543.761L1022.99 512.845L1053.75 478.985L1201.38 451.995L1213.97 475.55C1215.34 481.111 1218.1 492.725 1218.1 494.688C1218.1 496.651 1204.33 512.845 1197.44 520.696C1172.47 521.874 1165 543.433 1164.39 554.066C1158.64 554.632 1153.83 556.422 1149.82 558.973M1022.99 538.363L1043.65 527.076H1081.29L1086.8 538.363L1116.18 532.474L1149.82 558.973M1022.99 538.363L1017.94 546.705L1022.99 556.519L1043.65 571.732C1054.21 580.401 1075.33 598.133 1075.33 599.703C1075.33 601.274 1082.98 618.351 1086.8 626.693L1099.4 631.6M1149.82 558.973C1137.16 567.026 1132.49 582.665 1131.79 591.361C1116.11 600.489 1105.87 615.796 1099.4 631.6" stroke="white" stroke-width="2"/>
</svg>
