<svg width="417" height="879" viewBox="0 0 417 879" fill="none" xmlns="http://www.w3.org/2000/svg">
<path d="M22.0508 95.101V13.7778L37.8032 33.8636V3L114.13 62.7677L218.812 95.101L233.991 107.348H265.639L240.865 157.808L248.741 165.157L265.639 138.212L277.239 150.949H290.843L299.865 175.934H281.392L271.367 202.879V280.283L277.239 328.783L283.969 312.616L281.392 239.131L288.265 192.101H299.865L307.168 233.742L311.894 280.283L304.59 316.535H319.77L333.517 280.283L336.095 239.131H349.27L356.573 219.045L352.993 202.879L363.447 165.157L385.643 148.99L388.221 127.434L394.522 44.6414H401.825L415 127.434L404.546 165.157L394.522 219.045L399.248 255.298L382.923 296.449C382.207 311.473 379.743 344.362 375.619 355.727C371.495 367.093 368.65 390.51 367.743 400.798L375.619 447.828V505.146L352.993 591.859L339.818 636.929V683.47L349.27 753.525L358.148 793.207L359.294 849.056L356.573 876L346.119 849.056L330.797 784.389V735.889L317.192 710.414H304.59H271.367V735.889L278.241 762.833H260.914L238.717 735.889L223.538 753.525L200.339 820.151L203.06 876L185.589 858.364L167.832 735.889H155.086L150.361 762.833L138.332 735.889L125.73 656.525H110.407V667.303L84.6306 656.525L57.2788 581.081H37.8032V555.606L14.6043 505.146L7.87375 400.798L1 319.965L7.87375 271.465V192.101L22.0508 95.101Z" stroke="white" stroke-width="2"/>
</svg>
