<svg width="99" height="99" viewBox="0 0 99 99" fill="none" xmlns="http://www.w3.org/2000/svg">
<path d="M7.7749 73.59L49.5 1.32L91.2251 73.59H7.7749Z" stroke="white" stroke-width="1.32"/>
<path d="M44 53.2661V28.069H55.3793V43.1872H51.5862V53.2661H44ZM44 63.3449V58.3055H51.5862V63.3449H44Z" fill="white"/>
<path d="M7.7749 73.59L49.5 1.32L91.2251 73.59H7.7749Z" stroke="white" stroke-width="1.32"/>
<path d="M44 53.2661V28.069H55.3793V43.1872H51.5862V53.2661H44ZM44 63.3449V58.3055H51.5862V63.3449H44Z" fill="white"/>
<path d="M7.7749 73.59L49.5 1.32L91.2251 73.59H7.7749Z" stroke="white" stroke-width="1.32"/>
<path d="M44 53.2661V28.069H55.3793V43.1872H51.5862V53.2661H44ZM44 63.3449V58.3055H51.5862V63.3449H44Z" fill="white"/>
</svg>
